<svg viewBox="0 0 900 1020" xmlns="http://www.w3.org/2000/svg"><defs><linearGradient id="a"><stop offset="0%" stop-color="#833ab4"/><stop offset="50%" stop-color="#fd1d1d"/><stop offset="100%" stop-color="#fcb045"/></linearGradient></defs><rect x="10" y="30" width="120" height="120" rx="10" fill="rgba(131, 59, 181, 0.03)" stroke="rgba(131, 59, 181, 0.08)"/><path fill="transparent" stroke="url(#a)" d="M20 140h1l1 .1h1l1 .1 1 .2 1 .1 1 .2 1 .2 1 .2 1 .2 1 .3 1 .3 1 .2 1 .3 1 .3 1 .3 1 .3 1 .4 1 .3 1 .3 1 .3 1 .4 1 .3 1 .3 1 .3 1 .3 1 .3 1 .3 1 .3 1 .3 1 .2 1 .3 1 .2 1 .2 1 .2 1 .1 1 .1 1 .1 1 .1 1 .1h2l1-.1 1-.1 1-.1 1-.2 1-.1 1-.3 1-.3 1-.3 1-.4 1-.4 1-.5 1-.5 1-.6 1-.6 1-.7 1-.7 1-.8 1-.9 1-.9 1-1 1-1 1-1.1 1-1.2 1-1.3 1-1.3 1-1.4 1-1.4 1-1.6 1-1.6 1-1.7 1-1.8 1-1.8 1-2 1-2 1-2.1 1-2.2 1-2.3 1-2.4 1-2.5 1-2.6 1-2.6 1-2.8 1-2.9 1-2.9 1-3.1 1-3.2 1-3.3 1-3.3 1-3.5 1-3.6 1-3.7 1-3.9 1-3.9 1-4.1 1-4.2 1-4.2 1-4.5 1-4.5" stroke-linecap="round" stroke-width="4"/><text x="70" y="17" text-anchor="middle" fill="#833ab4" font-size="1em" font-weight="bold" font-family="monospace">backIn</text><rect x="160" y="30" width="120" height="120" rx="10" fill="rgba(131, 59, 181, 0.03)" stroke="rgba(131, 59, 181, 0.08)"/><path fill="transparent" stroke="url(#a)" d="M170 140h1l1 .2 1 .2 1 .3 1 .3 1 .4 1 .4 1 .5 1 .5 1 .5 1 .5 1 .5 1 .6 1 .5 1 .5 1 .5 1 .4 1 .4 1 .4 1 .2 1 .3 1 .1 1 .1 1-.1 1-.1 1-.2 1-.3 1-.5 1-.6 1-.7 1-.9 1-1 1-1.2 1-1.4 1-1.5 1-1.8 1-1.9 1-2.1 1-2.3 1-2.6 1-2.7 1-3.1 1-3.2 1-3.5 1-3.7 1-4 1-4.3 1-4.6 1-4.9 1-5.1 1-5.1 1-4.9 1-4.6 1-4.3 1-4 1-3.7 1-3.5 1-3.2 1-3.1 1-2.7 1-2.6 1-2.3 1-2.1 1-1.9 1-1.8 1-1.5 1-1.4 1-1.2 1-1 1-.9 1-.7 1-.6 1-.5 1-.3 1-.2 1-.1 1-.1 1 .1 1 .1 1 .3 1 .2 1 .4 1 .4 1 .4 1 .5 1 .5 1 .5 1 .6 1 .5 1 .5 1 .5 1 .5 1 .5 1 .4 1 .4 1 .3 1 .3 1 .2 1 .2h1" stroke-linecap="round" stroke-width="4"/><text x="220" y="17" text-anchor="middle" fill="#833ab4" font-size="1em" font-weight="bold" font-family="monospace">backInOut</text><rect x="310" y="30" width="120" height="120" rx="10" fill="rgba(131, 59, 181, 0.03)" stroke="rgba(131, 59, 181, 0.08)"/><path fill="transparent" stroke="url(#a)" d="m320 140 1-4.5 1-4.5 1-4.2 1-4.2 1-4.1 1-3.9 1-3.9 1-3.7 1-3.6 1-3.5 1-3.3 1-3.3 1-3.2 1-3.1 1-2.9 1-2.9 1-2.8 1-2.6 1-2.6 1-2.5 1-2.4 1-2.3 1-2.2 1-2.1 1-2 1-2 1-1.8 1-1.8 1-1.7 1-1.6 1-1.6 1-1.4 1-1.4 1-1.3 1-1.3 1-1.2 1-1.1 1-1 1-1 1-.9 1-.9 1-.8 1-.7 1-.7 1-.6 1-.6 1-.5 1-.5 1-.4 1-.4 1-.3 1-.3 1-.3 1-.1 1-.2 1-.1 1-.1 1-.1h2l1 .1 1 .1 1 .1 1 .1 1 .1 1 .2 1 .2 1 .2 1 .3 1 .2 1 .3 1 .3 1 .3 1 .3 1 .3 1 .3 1 .3 1 .3 1 .4 1 .3 1 .3 1 .3 1 .4 1 .3 1 .3 1 .3 1 .3 1 .2 1 .3 1 .3 1 .2 1 .2 1 .2 1 .2 1 .1 1 .2 1 .1h1l1 .1h1" stroke-linecap="round" stroke-width="4"/><text x="370" y="17" text-anchor="middle" fill="#833ab4" font-size="1em" font-weight="bold" font-family="monospace">backOut</text><rect x="460" y="30" width="120" height="120" rx="10" fill="rgba(131, 59, 181, 0.03)" stroke="rgba(131, 59, 181, 0.08)"/><path fill="transparent" stroke="url(#a)" d="m470 140 1-1 1-.7 1-.6 1-.3 1-.1 1 .1 1 .3 1 .6 1 .7 1 1 1-2 1-1.7 1-1.5 1-1.2 1-1 1-.8 1-.5 1-.3h1l1 .2 1 .5 1 .7 1 .9 1 1.2 1 1.4 1 1.6 1 1.9 1-1.8 1-3 1-2.9 1-2.7 1-2.6 1-2.3 1-2.2 1-2 1-1.8 1-1.6 1-1.5 1-1.2 1-1.1 1-.9 1-.7 1-.6 1-.3 1-.2h1l1 .2 1 .4 1 .5 1 .8 1 .9 1 1.1 1 1.3 1 1.4 1 1.7 1 1.8 1 2 1 2.2 1 2.4 1 2.5 1 2.7 1 2.9 1 3.1 1 .1 1-5.4 1-5.2 1-5 1-5 1-4.7 1-4.6 1-4.5 1-4.3 1-4.2 1-4 1-3.8 1-3.7 1-3.6 1-3.4 1-3.2 1-3.2 1-2.9 1-2.8 1-2.6 1-2.5 1-2.4 1-2.2 1-2 1-1.9 1-1.7 1-1.6 1-1.5 1-1.3 1-1.1 1-1 1-.8 1-.7 1-.5 1-.4 1-.2 1-.1" stroke-linecap="round" stroke-width="4"/><text x="520" y="17" text-anchor="middle" fill="#833ab4" font-size="1em" font-weight="bold" font-family="monospace">bounceIn</text><rect x="610" y="30" width="120" height="120" rx="10" fill="rgba(131, 59, 181, 0.03)" stroke="rgba(131, 59, 181, 0.08)"/><path fill="transparent" stroke="url(#a)" d="m620 140 1-.9 1-.4h1l1 .4 1 .9 1-1.8 1-1.4 1-.9 1-.4 1 .1 1 .6 1 1 1 1.6h1l1-3 1-2.6 1-2.2 1-1.9 1-1.6 1-1.2 1-.8 1-.4 1-.1 1 .3 1 .6 1 1 1 1.4 1 1.7 1 2.1 1 2.5 1 2.8 1 1.6 1-5.3 1-5 1-4.7 1-4.4 1-4 1-3.8 1-3.5 1-3.2 1-2.8 1-2.6 1-2.3 1-2 1-1.6 1-1.4 1-1 1-.8 1-.4 1-.2 1-.2 1-.4 1-.8 1-1 1-1.4 1-1.6 1-2 1-2.3 1-2.6 1-2.8 1-3.2 1-3.5 1-3.8 1-4 1-4.4 1-4.7 1-5 1-5.3 1 1.6 1 2.8 1 2.5 1 2.1 1 1.7 1 1.4 1 1 1 .6 1 .3 1-.1 1-.4 1-.8 1-1.2 1-1.6 1-1.9 1-2.2 1-2.6 1-3h1l1 1.6 1 1 1 .6 1 .1 1-.4 1-.9 1-1.4 1-1.8 1 .9 1 .4h1l1-.4 1-.9" stroke-linecap="round" stroke-width="4"/><text x="670" y="17" text-anchor="middle" fill="#833ab4" font-size="1em" font-weight="bold" font-family="monospace">bounceInOut</text><rect x="760" y="30" width="120" height="120" rx="10" fill="rgba(131, 59, 181, 0.03)" stroke="rgba(131, 59, 181, 0.08)"/><path fill="transparent" stroke="url(#a)" d="m770 140 1-.1 1-.2 1-.4 1-.5 1-.7 1-.8 1-1 1-1.1 1-1.3 1-1.5 1-1.6 1-1.7 1-1.9 1-2 1-2.2 1-2.4 1-2.5 1-2.6 1-2.8 1-2.9 1-3.2 1-3.2 1-3.4 1-3.6 1-3.7 1-3.8 1-4 1-4.2 1-4.3 1-4.5 1-4.6 1-4.7 1-5 1-5 1-5.2 1-5.4 1 .1 1 3.1 1 2.9 1 2.7 1 2.5 1 2.4 1 2.2 1 2 1 1.8 1 1.7 1 1.4 1 1.3 1 1.1 1 .9 1 .8 1 .5 1 .4 1 .2h1l1-.2 1-.3 1-.6 1-.7 1-.9 1-1.1 1-1.2 1-1.5 1-1.6 1-1.8 1-2 1-2.2 1-2.3 1-2.6 1-2.7 1-2.9 1-3 1-1.8 1 1.9 1 1.6 1 1.4 1 1.2 1 .9 1 .7 1 .5 1 .2h1l1-.3 1-.5 1-.8 1-1 1-1.2 1-1.5 1-1.7 1-2 1 1 1 .7 1 .6 1 .3 1 .1 1-.1 1-.3 1-.6 1-.7 1-1" stroke-linecap="round" stroke-width="4"/><text x="820" y="17" text-anchor="middle" fill="#833ab4" font-size="1em" font-weight="bold" font-family="monospace">bounceOut</text><rect x="10" y="200" width="120" height="120" rx="10" fill="rgba(131, 59, 181, 0.03)" stroke="rgba(131, 59, 181, 0.08)"/><path fill="transparent" stroke="url(#a)" d="M20 310h3l1-.1h1l1-.1h1l1-.1 1-.1 1-.1 1-.1 1-.1 1-.1 1-.2 1-.1 1-.2 1-.2 1-.1 1-.2 1-.2 1-.2 1-.3 1-.2 1-.2 1-.3 1-.2 1-.3 1-.3 1-.3 1-.3 1-.3 1-.4 1-.3 1-.4 1-.3 1-.4 1-.4 1-.4 1-.4 1-.4 1-.5 1-.4 1-.5 1-.5 1-.5 1-.5 1-.5 1-.6 1-.5 1-.6 1-.6 1-.6 1-.6 1-.6 1-.7 1-.7 1-.6 1-.7 1-.8 1-.7 1-.8 1-.7 1-.8 1-.9 1-.8 1-.9 1-.9 1-.9 1-.9 1-1 1-1 1-1 1-1.1 1-1 1-1.2 1-1.1 1-1.2 1-1.2 1-1.3 1-1.3 1-1.4 1-1.4 1-1.4 1-1.5 1-1.6 1-1.7 1-1.7 1-1.8 1-1.9 1-2 1-2.1 1-2.3 1-2.4 1-2.7 1-2.9 1-3.2 1-3.7 1-4.4 1-5.8 1-14.1" stroke-linecap="round" stroke-width="4"/><text x="70" y="187" text-anchor="middle" fill="#833ab4" font-size="1em" font-weight="bold" font-family="monospace">circIn</text><rect x="160" y="200" width="120" height="120" rx="10" fill="rgba(131, 59, 181, 0.03)" stroke="rgba(131, 59, 181, 0.08)"/><path fill="transparent" stroke="url(#a)" d="M170 310h2l1-.1 1-.1 1-.1 1-.1 1-.1 1-.1 1-.2 1-.2 1-.2 1-.3 1-.2 1-.3 1-.3 1-.3 1-.4 1-.4 1-.4 1-.4 1-.4 1-.5 1-.5 1-.5 1-.6 1-.6 1-.6 1-.7 1-.7 1-.7 1-.8 1-.8 1-.8 1-.9 1-1 1-1 1-1.1 1-1.1 1-1.2 1-1.3 1-1.4 1-1.5 1-1.6 1-1.8 1-1.9 1-2.2 1-2.5 1-3.1 1-4.1 1-9.9 1-9.9 1-4.1 1-3.1 1-2.5 1-2.2 1-1.9 1-1.8 1-1.6 1-1.5 1-1.4 1-1.3 1-1.2 1-1.1 1-1.1 1-1 1-1 1-.9 1-.8 1-.8 1-.8 1-.7 1-.7 1-.7 1-.6 1-.6 1-.6 1-.5 1-.5 1-.5 1-.4 1-.4 1-.4 1-.4 1-.4 1-.3 1-.3 1-.3 1-.2 1-.3 1-.2 1-.2 1-.2 1-.1 1-.1 1-.1 1-.1 1-.1 1-.1h2" stroke-linecap="round" stroke-width="4"/><text x="220" y="187" text-anchor="middle" fill="#833ab4" font-size="1em" font-weight="bold" font-family="monospace">circInOut</text><rect x="310" y="200" width="120" height="120" rx="10" fill="rgba(131, 59, 181, 0.03)" stroke="rgba(131, 59, 181, 0.08)"/><path fill="transparent" stroke="url(#a)" d="m320 310 1-14.1 1-5.8 1-4.4 1-3.7 1-3.2 1-2.9 1-2.7 1-2.4 1-2.3 1-2.1 1-2 1-1.9 1-1.8 1-1.7 1-1.7 1-1.6 1-1.5 1-1.4 1-1.4 1-1.4 1-1.3 1-1.3 1-1.2 1-1.2 1-1.1 1-1.2 1-1 1-1.1 1-1 1-1 1-1 1-.9 1-.9 1-.9 1-.9 1-.8 1-.9 1-.8 1-.7 1-.8 1-.7 1-.8 1-.7 1-.6 1-.7 1-.7 1-.6 1-.6 1-.6 1-.6 1-.6 1-.5 1-.6 1-.5 1-.5 1-.5 1-.5 1-.5 1-.4 1-.5 1-.4 1-.4 1-.4 1-.4 1-.4 1-.3 1-.4 1-.3 1-.4 1-.3 1-.3 1-.3 1-.3 1-.3 1-.2 1-.3 1-.2 1-.2 1-.3 1-.2 1-.2 1-.2 1-.1 1-.2 1-.2 1-.1 1-.2 1-.1 1-.1 1-.1 1-.1 1-.1 1-.1h1l1-.1h1l1-.1h3" stroke-linecap="round" stroke-width="4"/><text x="370" y="187" text-anchor="middle" fill="#833ab4" font-size="1em" font-weight="bold" font-family="monospace">circOut</text><rect x="460" y="200" width="120" height="120" rx="10" fill="rgba(131, 59, 181, 0.03)" stroke="rgba(131, 59, 181, 0.08)"/><path fill="transparent" stroke="url(#a)" d="M470 310h7l1-.1h3l1-.1h1l1-.1h1l1-.1 1-.1 1-.1 1-.1 1-.1 1-.1 1-.2 1-.1 1-.2 1-.2 1-.2 1-.2 1-.2 1-.2 1-.3 1-.3 1-.3 1-.3 1-.3 1-.4 1-.4 1-.4 1-.4 1-.4 1-.5 1-.5 1-.5 1-.6 1-.5 1-.6 1-.6 1-.7 1-.7 1-.7 1-.7 1-.8 1-.8 1-.8 1-.8 1-.9 1-1 1-.9 1-1 1-1 1-1.1 1-1.1 1-1.1 1-1.2 1-1.2 1-1.3 1-1.2 1-1.4 1-1.3 1-1.5 1-1.4 1-1.5 1-1.5 1-1.6 1-1.6 1-1.7 1-1.7 1-1.8 1-1.8 1-1.8 1-1.9 1-1.9 1-2 1-2.1 1-2.1 1-2.1 1-2.2 1-2.3 1-2.2 1-2.4 1-2.4 1-2.5 1-2.5 1-2.5 1-2.7 1-2.6 1-2.8 1-2.8 1-2.8 1-2.9 1-3" stroke-linecap="round" stroke-width="4"/><text x="520" y="187" text-anchor="middle" fill="#833ab4" font-size="1em" font-weight="bold" font-family="monospace">cubicIn</text><rect x="610" y="200" width="120" height="120" rx="10" fill="rgba(131, 59, 181, 0.03)" stroke="rgba(131, 59, 181, 0.08)"/><path fill="transparent" stroke="url(#a)" d="M620 310h5l1-.1h1l1-.1 1-.1 1-.1 1-.1 1-.2 1-.2 1-.2 1-.2 1-.3 1-.4 1-.3 1-.4 1-.5 1-.5 1-.6 1-.6 1-.6 1-.7 1-.8 1-.9 1-.9 1-1 1-1 1-1.1 1-1.2 1-1.3 1-1.3 1-1.5 1-1.5 1-1.6 1-1.6 1-1.8 1-1.9 1-2 1-2 1-2.2 1-2.3 1-2.4 1-2.4 1-2.6 1-2.7 1-2.9 1-2.9 1-2.9 1-2.9 1-2.7 1-2.6 1-2.5 1-2.3 1-2.3 1-2.2 1-2 1-2 1-1.9 1-1.8 1-1.6 1-1.6 1-1.6 1-1.4 1-1.3 1-1.3 1-1.2 1-1.1 1-1 1-1 1-.9 1-.9 1-.7 1-.8 1-.6 1-.6 1-.6 1-.5 1-.5 1-.4 1-.3 1-.4 1-.3 1-.2 1-.2 1-.2 1-.2 1-.1 1-.1 1-.1 1-.1h1l1-.1h5" stroke-linecap="round" stroke-width="4"/><text x="670" y="187" text-anchor="middle" fill="#833ab4" font-size="1em" font-weight="bold" font-family="monospace">cubicInOut</text><g><rect x="760" y="200" width="120" height="120" rx="10" fill="rgba(131, 59, 181, 0.03)" stroke="rgba(131, 59, 181, 0.08)"/><path fill="transparent" stroke="url(#a)" d="m770 310 1-3 1-2.9 1-2.8 1-2.8 1-2.8 1-2.6 1-2.7 1-2.5 1-2.5 1-2.5 1-2.4 1-2.4 1-2.2 1-2.3 1-2.2 1-2.1 1-2.1 1-2.1 1-2 1-1.9 1-1.9 1-1.8 1-1.8 1-1.8 1-1.7 1-1.7 1-1.6 1-1.6 1-1.5 1-1.5 1-1.4 1-1.5 1-1.3 1-1.4 1-1.2 1-1.3 1-1.2 1-1.2 1-1.1 1-1.1 1-1.1 1-1 1-1 1-.9 1-1 1-.9 1-.8 1-.8 1-.8 1-.8 1-.7 1-.7 1-.7 1-.7 1-.6 1-.6 1-.5 1-.6 1-.5 1-.5 1-.5 1-.4 1-.4 1-.4 1-.4 1-.4 1-.3 1-.3 1-.3 1-.3 1-.3 1-.2 1-.2 1-.2 1-.2 1-.2 1-.2 1-.1 1-.2 1-.1 1-.1 1-.1 1-.1 1-.1 1-.1h1l1-.1h1l1-.1h3l1-.1h7" stroke-linecap="round" stroke-width="4"/><text x="820" y="187" text-anchor="middle" fill="#833ab4" font-size="1em" font-weight="bold" font-family="monospace">cubicOut</text></g><g><rect x="10" y="370" width="120" height="120" rx="10" fill="rgba(131, 59, 181, 0.03)" stroke="rgba(131, 59, 181, 0.08)"/><path fill="transparent" stroke="url(#a)" d="M20 479.9h6l1 .1h2l1 .1h2l1 .1h1l1 .1h6l1-.1h1l1-.1 1-.1 1-.1 1-.1 1-.2 1-.1 1-.1 1-.2 1-.1 1-.1h1l1-.1 1 .1h1l1 .1 1 .2 1 .2 1 .3 1 .3 1 .4 1 .4 1 .4 1 .4 1 .4 1 .4 1 .4 1 .2 1 .2h1l1-.1 1-.2 1-.4 1-.6 1-.7 1-1 1-1 1-1.2 1-1.3 1-1.4 1-1.3 1-1.3 1-1.2 1-1 1-.7 1-.4 1-.1 1 .5 1 .9 1 1.5 1 2 1 2.6 1 3.1 1 3.6 1 3.9 1 4.2 1 4.3 1 4.2 1 4 1 3.6 1 2.9 1 2 1 .9 1-.4 1-1.9 1-3.6 1-5.2 1-7 1-8.8 1-10.3 1-11.7 1-12.8 1-13.5 1-13.6 1-13.4 1-12.3 1-10.8 1-8.3" stroke-linecap="round" stroke-width="4"/><text x="70" y="357" text-anchor="middle" fill="#833ab4" font-size="1em" font-weight="bold" font-family="monospace">elasticIn</text></g><g><rect x="160" y="370" width="120" height="120" rx="10" fill="rgba(131, 59, 181, 0.03)" stroke="rgba(131, 59, 181, 0.08)"/><path fill="transparent" stroke="url(#a)" d="m170 480 1-.1 1 .1h3l1 .1h2l1 .1h1l1-.1 1-.1 1-.1 1-.1 1-.1 1-.1 1-.1h1l1 .1 1 .2 1 .3 1 .3 1 .5 1 .4 1 .3 1 .1 1-.2 1-.5 1-.8 1-1.2 1-1.3 1-1.3 1-1.1 1-.6 1 .2 1 1.3 1 2.3 1 3.3 1 4 1 4.3 1 3.8 1 2.5 1 .2 1-2.7 1-6.2 1-9.5 1-12.2 1-13.6 1-12.9 1-9.5 1-9.5 1-12.9 1-13.6 1-12.2 1-9.5 1-6.2 1-2.7 1 .2 1 2.5 1 3.8 1 4.3 1 4 1 3.3 1 2.3 1 1.3 1 .2 1-.6 1-1.1 1-1.3 1-1.3 1-1.2 1-.8 1-.5 1-.2 1 .1 1 .3 1 .4 1 .5 1 .3 1 .3 1 .2 1 .1h1l1-.1 1-.1 1-.1 1-.1 1-.1 1-.1 1-.1h1l1 .1h2l1 .1h3l1 .1 1-.1" stroke-linecap="round" stroke-width="4"/><text x="220" y="357" text-anchor="middle" fill="#833ab4" font-size="1em" font-weight="bold" font-family="monospace">elasticInOut</text></g><g><rect x="310" y="370" width="120" height="120" rx="10" fill="rgba(131, 59, 181, 0.03)" stroke="rgba(131, 59, 181, 0.08)"/><path fill="transparent" stroke="url(#a)" d="m320 480 1-8.3 1-10.8 1-12.3 1-13.4 1-13.6 1-13.5 1-12.8 1-11.7 1-10.3 1-8.8 1-7 1-5.2 1-3.6 1-1.9 1-.4 1 .9 1 2 1 2.9 1 3.6 1 4 1 4.2 1 4.3 1 4.2 1 3.9 1 3.6 1 3.1 1 2.6 1 2 1 1.5 1 .9 1 .5 1-.1 1-.4 1-.7 1-1 1-1.2 1-1.3 1-1.3 1-1.4 1-1.3 1-1.2 1-1 1-1 1-.7 1-.6 1-.4 1-.2 1-.1h1l1 .2 1 .2 1 .4 1 .4 1 .4 1 .4 1 .4 1 .4 1 .4 1 .3 1 .3 1 .2 1 .2 1 .1h1l1 .1 1-.1h1l1-.1 1-.1 1-.2 1-.1 1-.1 1-.2 1-.1 1-.1 1-.1 1-.1h1l1-.1h6l1 .1h1l1 .1h2l1 .1h2l1 .1h6" stroke-linecap="round" stroke-width="4"/><text x="370" y="357" text-anchor="middle" fill="#833ab4" font-size="1em" font-weight="bold" font-family="monospace">elasticOut</text></g><g><rect x="460" y="370" width="120" height="120" rx="10" fill="rgba(131, 59, 181, 0.03)" stroke="rgba(131, 59, 181, 0.08)"/><path fill="transparent" stroke="url(#a)" d="m470 480 1-.1h5l1-.1h6l1-.1h4l1-.1h3l1-.1h1l1-.1h2l1-.1h1l1-.1h1l1-.1 1-.1h1l1-.1 1-.1 1-.1 1-.1 1-.1 1-.1 1-.1 1-.1 1-.1 1-.2 1-.1 1-.2 1-.1 1-.2 1-.2 1-.2 1-.2 1-.3 1-.2 1-.3 1-.3 1-.3 1-.4 1-.3 1-.4 1-.4 1-.5 1-.5 1-.5 1-.5 1-.6 1-.7 1-.7 1-.7 1-.8 1-.8 1-.9 1-1 1-1 1-1.1 1-1.2 1-1.2 1-1.4 1-1.5 1-1.5 1-1.7 1-1.8 1-1.9 1-2.1 1-2.2 1-2.4 1-2.5 1-2.7 1-2.9 1-3.2 1-3.3 1-3.6 1-3.8 1-4.2 1-4.4 1-4.7 1-5.1 1-5.4 1-5.9 1-6.2 1-6.7" stroke-linecap="round" stroke-width="4"/><text x="520" y="357" text-anchor="middle" fill="#833ab4" font-size="1em" font-weight="bold" font-family="monospace">expoIn</text></g><g><rect x="610" y="370" width="120" height="120" rx="10" fill="rgba(131, 59, 181, 0.03)" stroke="rgba(131, 59, 181, 0.08)"/><path fill="transparent" stroke="url(#a)" d="m620 480 1-.1h7l1-.1h2l1-.1h2l1-.1h1l1-.1 1-.1 1-.1 1-.1 1-.1 1-.1 1-.2 1-.2 1-.2 1-.2 1-.3 1-.3 1-.3 1-.4 1-.5 1-.5 1-.6 1-.7 1-.8 1-1 1-1 1-1.3 1-1.4 1-1.6 1-1.9 1-2.1 1-2.4 1-2.9 1-3.2 1-3.7 1-4.3 1-4.9 1-5.6 1-6.5 1-6.5 1-5.6 1-4.9 1-4.3 1-3.7 1-3.2 1-2.9 1-2.4 1-2.1 1-1.9 1-1.6 1-1.4 1-1.3 1-1 1-.9 1-.9 1-.7 1-.6 1-.5 1-.5 1-.4 1-.3 1-.3 1-.3 1-.2 1-.2 1-.2 1-.2 1-.1 1-.1 1-.1 1-.1 1-.1 1-.1h1l1-.1h2l1-.1h2l1-.1h7l1-.1" stroke-linecap="round" stroke-width="4"/><text x="670" y="357" text-anchor="middle" fill="#833ab4" font-size="1em" font-weight="bold" font-family="monospace">expoInOut</text></g><g><rect x="760" y="370" width="120" height="120" rx="10" fill="rgba(131, 59, 181, 0.03)" stroke="rgba(131, 59, 181, 0.08)"/><path fill="transparent" stroke="url(#a)" d="m770 480 1-6.7 1-6.2 1-5.9 1-5.4 1-5.1 1-4.7 1-4.4 1-4.2 1-3.8 1-3.6 1-3.3 1-3.2 1-2.9 1-2.7 1-2.5 1-2.4 1-2.2 1-2.1 1-1.9 1-1.8 1-1.7 1-1.5 1-1.5 1-1.4 1-1.2 1-1.2 1-1.1 1-1 1-1 1-.9 1-.8 1-.8 1-.7 1-.7 1-.7 1-.6 1-.5 1-.5 1-.5 1-.4 1-.5 1-.4 1-.3 1-.4 1-.3 1-.3 1-.3 1-.2 1-.3 1-.2 1-.2 1-.2 1-.2 1-.1 1-.2 1-.1 1-.2 1-.1 1-.1 1-.1 1-.1 1-.1 1-.1 1-.1 1-.1 1-.1h1l1-.1 1-.1h1l1-.1h1l1-.1h2l1-.1h1l1-.1h3l1-.1h4l1-.1h6l1-.1h5l1-.1" stroke-linecap="round" stroke-width="4"/><text x="820" y="357" text-anchor="middle" fill="#833ab4" font-size="1em" font-weight="bold" font-family="monospace">expoOut</text></g><g><rect x="10" y="540" width="120" height="120" rx="10" fill="rgba(131, 59, 181, 0.03)" stroke="rgba(131, 59, 181, 0.08)"/><path fill="transparent" stroke="url(#a)" d="M20 650h21l1-.1h5l1-.1h2l1-.1h1l1-.1 1-.1h1l1-.1 1-.1 1-.1 1-.1 1-.1 1-.2 1-.1 1-.2 1-.1 1-.2 1-.3 1-.2 1-.2 1-.3 1-.3 1-.4 1-.3 1-.4 1-.4 1-.4 1-.5 1-.5 1-.6 1-.5 1-.7 1-.6 1-.8 1-.7 1-.8 1-.9 1-.9 1-1 1-1 1-1.1 1-1.2 1-1.2 1-1.3 1-1.4 1-1.5 1-1.5 1-1.7 1-1.7 1-1.8 1-1.9 1-2 1-2.1 1-2.2 1-2.3 1-2.4 1-2.6 1-2.6 1-2.8 1-3 1-3 1-3.2 1-3.4 1-3.5 1-3.7 1-3.8 1-4 1-4.1 1-4.4 1-4.5 1-4.7 1-4.9" stroke-linecap="round" stroke-width="4"/><text x="70" y="527" text-anchor="middle" fill="#833ab4" font-size="1em" font-weight="bold" font-family="monospace">qinticIn</text></g><g><rect x="160" y="540" width="120" height="120" rx="10" fill="rgba(131, 59, 181, 0.03)" stroke="rgba(131, 59, 181, 0.08)"/><path fill="transparent" stroke="url(#a)" d="M170 650h12l1-.1h2l1-.1h1l1-.1 1-.1 1-.1 1-.2 1-.1 1-.2 1-.3 1-.3 1-.3 1-.4 1-.5 1-.5 1-.6 1-.7 1-.8 1-.9 1-1 1-1.1 1-1.3 1-1.4 1-1.6 1-1.7 1-2 1-2.1 1-2.4 1-2.6 1-2.9 1-3.1 1-3.5 1-3.7 1-4.1 1-4.4 1-4.8 1-4.8 1-4.4 1-4.1 1-3.7 1-3.5 1-3.1 1-2.9 1-2.6 1-2.4 1-2.1 1-2 1-1.7 1-1.6 1-1.4 1-1.3 1-1.1 1-1 1-.9 1-.8 1-.7 1-.6 1-.5 1-.5 1-.4 1-.3 1-.3 1-.3 1-.2 1-.1 1-.2 1-.1 1-.1 1-.1h1l1-.1h2l1-.1h12" stroke-linecap="round" stroke-width="4"/><text x="220" y="527" text-anchor="middle" fill="#833ab4" font-size="1em" font-weight="bold" font-family="monospace">qinticInOut</text></g><g><rect x="310" y="540" width="120" height="120" rx="10" fill="rgba(131, 59, 181, 0.03)" stroke="rgba(131, 59, 181, 0.08)"/><path fill="transparent" stroke="url(#a)" d="m320 650 1-4.9 1-4.7 1-4.5 1-4.4 1-4.1 1-4 1-3.8 1-3.7 1-3.5 1-3.4 1-3.2 1-3 1-3 1-2.8 1-2.6 1-2.6 1-2.4 1-2.3 1-2.2 1-2.1 1-2 1-1.9 1-1.8 1-1.7 1-1.7 1-1.5 1-1.5 1-1.4 1-1.3 1-1.2 1-1.2 1-1.1 1-1 1-1 1-.9 1-.9 1-.8 1-.7 1-.8 1-.6 1-.7 1-.5 1-.6 1-.5 1-.5 1-.4 1-.4 1-.4 1-.3 1-.4 1-.3 1-.3 1-.2 1-.2 1-.3 1-.2 1-.1 1-.2 1-.1 1-.2 1-.1 1-.1 1-.1 1-.1 1-.1h1l1-.1 1-.1h1l1-.1h2l1-.1h5l1-.1h21" stroke-linecap="round" stroke-width="4"/><text x="370" y="527" text-anchor="middle" fill="#833ab4" font-size="1em" font-weight="bold" font-family="monospace">qinticOut</text></g><g><rect x="460" y="540" width="120" height="120" rx="10" fill="rgba(131, 59, 181, 0.03)" stroke="rgba(131, 59, 181, 0.08)"/><path fill="transparent" stroke="url(#a)" d="M470 650h2l1-.1 1-.1h1l1-.2 1-.1 1-.1 1-.2 1-.2 1-.2 1-.2 1-.3 1-.3 1-.2 1-.4 1-.3 1-.3 1-.4 1-.4 1-.4 1-.4 1-.5 1-.5 1-.4 1-.6 1-.5 1-.5 1-.6 1-.6 1-.6 1-.6 1-.7 1-.7 1-.6 1-.8 1-.7 1-.7 1-.8 1-.8 1-.8 1-.8 1-.9 1-.9 1-.8 1-1 1-.9 1-.9 1-1 1-1 1-1 1-1 1-1.1 1-1.1 1-1 1-1.2 1-1.1 1-1.1 1-1.2 1-1.2 1-1.2 1-1.2 1-1.3 1-1.3 1-1.3 1-1.3 1-1.3 1-1.3 1-1.4 1-1.4 1-1.4 1-1.4 1-1.5 1-1.5 1-1.4 1-1.6 1-1.5 1-1.5 1-1.6 1-1.6 1-1.6 1-1.6 1-1.7 1-1.7 1-1.6 1-1.8 1-1.7 1-1.7 1-1.8 1-1.8 1-1.8 1-1.8 1-1.9 1-1.9 1-1.9 1-1.9 1-1.9 1-1.9 1-2 1-2" stroke-linecap="round" stroke-width="4"/><text x="520" y="527" text-anchor="middle" fill="#833ab4" font-size="1em" font-weight="bold" font-family="monospace">quadIn</text></g><g><rect x="610" y="540" width="120" height="120" rx="10" fill="rgba(131, 59, 181, 0.03)" stroke="rgba(131, 59, 181, 0.08)"/><path fill="transparent" stroke="url(#a)" d="M620 650h1l1-.1 1-.1 1-.1 1-.2 1-.2 1-.3 1-.3 1-.3 1-.4 1-.4 1-.5 1-.5 1-.5 1-.6 1-.6 1-.7 1-.7 1-.7 1-.8 1-.8 1-.9 1-.9 1-.9 1-1 1-1 1-1.1 1-1.1 1-1.1 1-1.2 1-1.2 1-1.3 1-1.3 1-1.3 1-1.4 1-1.4 1-1.5 1-1.5 1-1.5 1-1.6 1-1.6 1-1.7 1-1.7 1-1.7 1-1.8 1-1.8 1-1.9 1-1.9 1-1.9 1-2 1-2 1-1.9 1-1.9 1-1.9 1-1.8 1-1.8 1-1.7 1-1.7 1-1.7 1-1.6 1-1.6 1-1.5 1-1.5 1-1.5 1-1.4 1-1.4 1-1.3 1-1.3 1-1.3 1-1.2 1-1.2 1-1.1 1-1.1 1-1.1 1-1 1-1 1-.9 1-.9 1-.9 1-.8 1-.8 1-.7 1-.7 1-.7 1-.6 1-.6 1-.5 1-.5 1-.5 1-.4 1-.4 1-.3 1-.3 1-.3 1-.2 1-.2 1-.1 1-.1 1-.1h1" stroke-linecap="round" stroke-width="4"/><text x="670" y="527" text-anchor="middle" fill="#833ab4" font-size="1em" font-weight="bold" font-family="monospace">quadInOut</text></g><g><rect x="760" y="540" width="120" height="120" rx="10" fill="rgba(131, 59, 181, 0.03)" stroke="rgba(131, 59, 181, 0.08)"/><path fill="transparent" stroke="url(#a)" d="m770 650 1-2 1-2 1-1.9 1-1.9 1-1.9 1-1.9 1-1.9 1-1.9 1-1.8 1-1.8 1-1.8 1-1.8 1-1.7 1-1.7 1-1.8 1-1.6 1-1.7 1-1.7 1-1.6 1-1.6 1-1.6 1-1.6 1-1.5 1-1.5 1-1.5 1-1.5 1-1.5 1-1.5 1-1.4 1-1.4 1-1.4 1-1.4 1-1.3 1-1.3 1-1.4 1-1.2 1-1.3 1-1.3 1-1.2 1-1.2 1-1.2 1-1.2 1-1.1 1-1.1 1-1.1 1-1.1 1-1.1 1-1.1 1-1 1-1 1-1 1-1 1-.9 1-.9 1-1 1-.8 1-.9 1-.9 1-.8 1-.8 1-.8 1-.8 1-.7 1-.7 1-.8 1-.6 1-.7 1-.7 1-.6 1-.6 1-.6 1-.6 1-.5 1-.5 1-.5 1-.5 1-.5 1-.5 1-.4 1-.4 1-.4 1-.4 1-.3 1-.3 1-.4 1-.2 1-.3 1-.3 1-.2 1-.2 1-.2 1-.2 1-.1 1-.1 1-.2h1l1-.1 1-.1h2" stroke-linecap="round" stroke-width="4"/><text x="820" y="527" text-anchor="middle" fill="#833ab4" font-size="1em" font-weight="bold" font-family="monospace">quadOut</text></g><g><rect x="10" y="710" width="120" height="120" rx="10" fill="rgba(131, 59, 181, 0.03)" stroke="rgba(131, 59, 181, 0.08)"/><path fill="transparent" stroke="url(#a)" d="M20 820h14l1-.1h4l1-.1h2l1-.1h1l1-.1 1-.1h1l1-.1 1-.1 1-.1 1-.1 1-.1 1-.2 1-.1 1-.2 1-.2 1-.2 1-.2 1-.2 1-.3 1-.2 1-.3 1-.3 1-.3 1-.4 1-.4 1-.4 1-.4 1-.5 1-.4 1-.6 1-.5 1-.6 1-.6 1-.7 1-.6 1-.8 1-.7 1-.8 1-.9 1-.8 1-1 1-1 1-1 1-1.1 1-1.1 1-1.2 1-1.2 1-1.3 1-1.3 1-1.4 1-1.5 1-1.5 1-1.6 1-1.6 1-1.8 1-1.8 1-1.8 1-2 1-2 1-2 1-2.2 1-2.3 1-2.3 1-2.4 1-2.5 1-2.6 1-2.7 1-2.7 1-2.9 1-3 1-3 1-3.2 1-3.3 1-3.4 1-3.4 1-3.6 1-3.7 1-3.9 1-3.9" stroke-linecap="round" stroke-width="4"/><text x="70" y="697" text-anchor="middle" fill="#833ab4" font-size="1em" font-weight="bold" font-family="monospace">quarticIn</text></g><g><rect x="160" y="710" width="120" height="120" rx="10" fill="rgba(131, 59, 181, 0.03)" stroke="rgba(131, 59, 181, 0.08)"/><path fill="transparent" stroke="url(#a)" d="M170 820h8l1-.1h2l1-.1h1l1-.1 1-.1 1-.1 1-.2 1-.1 1-.2 1-.3 1-.3 1-.3 1-.3 1-.5 1-.4 1-.6 1-.6 1-.6 1-.8 1-.8 1-.9 1-1 1-1.1 1-1.2 1-1.3 1-1.4 1-1.6 1-1.7 1-1.8 1-2 1-2.1 1-2.3 1-2.5 1-2.6 1-2.8 1-3 1-3.2 1-3.5 1-3.6 1-3.9 1-3.9 1-3.6 1-3.5 1-3.2 1-3 1-2.8 1-2.6 1-2.5 1-2.3 1-2.1 1-2 1-1.8 1-1.7 1-1.6 1-1.4 1-1.3 1-1.2 1-1.1 1-1 1-.9 1-.8 1-.8 1-.6 1-.6 1-.6 1-.4 1-.5 1-.3 1-.3 1-.3 1-.3 1-.2 1-.1 1-.2 1-.1 1-.1 1-.1h1l1-.1h2l1-.1h8" stroke-linecap="round" stroke-width="4"/><text x="220" y="697" text-anchor="middle" fill="#833ab4" font-size="1em" font-weight="bold" font-family="monospace">quarticInOut</text></g><g><rect x="310" y="710" width="120" height="120" rx="10" fill="rgba(131, 59, 181, 0.03)" stroke="rgba(131, 59, 181, 0.08)"/><path fill="transparent" stroke="url(#a)" d="m320 820 1-3.9 1-3.9 1-3.7 1-3.6 1-3.4 1-3.4 1-3.3 1-3.2 1-3 1-3 1-2.9 1-2.7 1-2.7 1-2.6 1-2.5 1-2.4 1-2.3 1-2.3 1-2.2 1-2 1-2 1-2 1-1.8 1-1.8 1-1.8 1-1.6 1-1.6 1-1.5 1-1.5 1-1.4 1-1.3 1-1.3 1-1.2 1-1.2 1-1.1 1-1.1 1-1 1-1 1-1 1-.8 1-.9 1-.8 1-.7 1-.8 1-.6 1-.7 1-.6 1-.6 1-.5 1-.5 1-.5 1-.5 1-.4 1-.4 1-.4 1-.4 1-.3 1-.3 1-.3 1-.2 1-.3 1-.2 1-.2 1-.2 1-.2 1-.2 1-.1 1-.2 1-.1 1-.1 1-.1 1-.1 1-.1h1l1-.1 1-.1h1l1-.1h2l1-.1h4l1-.1h14" stroke-linecap="round" stroke-width="4"/><text x="370" y="697" text-anchor="middle" fill="#833ab4" font-size="1em" font-weight="bold" font-family="monospace">quarticOut</text></g><g><rect x="460" y="710" width="120" height="120" rx="10" fill="rgba(131, 59, 181, 0.03)" stroke="rgba(131, 59, 181, 0.08)"/><path fill="transparent" stroke="url(#a)" d="M470 820h2l1-.1 1-.1 1-.1 1-.1 1-.2 1-.2 1-.2 1-.2 1-.3 1-.3 1-.3 1-.3 1-.4 1-.3 1-.4 1-.5 1-.4 1-.5 1-.5 1-.5 1-.6 1-.5 1-.6 1-.6 1-.7 1-.6 1-.7 1-.7 1-.7 1-.8 1-.7 1-.8 1-.8 1-.9 1-.8 1-.9 1-.9 1-.9 1-.9 1-1 1-1 1-.9 1-1.1 1-1 1-1 1-1.1 1-1.1 1-1.1 1-1.1 1-1.1 1-1.2 1-1.2 1-1.2 1-1.2 1-1.2 1-1.2 1-1.3 1-1.2 1-1.3 1-1.3 1-1.3 1-1.3 1-1.4 1-1.3 1-1.4 1-1.3 1-1.4 1-1.4 1-1.4 1-1.4 1-1.4 1-1.5 1-1.4 1-1.5 1-1.5 1-1.4 1-1.5 1-1.5 1-1.5 1-1.5 1-1.5 1-1.5 1-1.6 1-1.5 1-1.5 1-1.6 1-1.5 1-1.6 1-1.5 1-1.6 1-1.5 1-1.6 1-1.6 1-1.5 1-1.6 1-1.6 1-1.5 1-1.6" stroke-linecap="round" stroke-width="4"/><text x="520" y="697" text-anchor="middle" fill="#833ab4" font-size="1em" font-weight="bold" font-family="monospace">sineIn</text></g><g><rect x="610" y="710" width="120" height="120" rx="10" fill="rgba(131, 59, 181, 0.03)" stroke="rgba(131, 59, 181, 0.08)"/><path fill="transparent" stroke="url(#a)" d="M620 820h1l1-.1 1-.1 1-.2 1-.2 1-.3 1-.3 1-.4 1-.4 1-.4 1-.6 1-.5 1-.6 1-.7 1-.6 1-.8 1-.8 1-.8 1-.8 1-.9 1-1 1-1 1-1 1-1.1 1-1 1-1.2 1-1.1 1-1.2 1-1.3 1-1.2 1-1.3 1-1.3 1-1.3 1-1.4 1-1.4 1-1.4 1-1.4 1-1.5 1-1.5 1-1.4 1-1.6 1-1.5 1-1.5 1-1.5 1-1.6 1-1.5 1-1.6 1-1.6 1-1.5 1-1.6 1-1.6 1-1.5 1-1.6 1-1.6 1-1.5 1-1.6 1-1.5 1-1.5 1-1.5 1-1.6 1-1.4 1-1.5 1-1.5 1-1.4 1-1.4 1-1.4 1-1.4 1-1.3 1-1.3 1-1.3 1-1.2 1-1.3 1-1.2 1-1.1 1-1.2 1-1 1-1.1 1-1 1-1 1-1 1-.9 1-.8 1-.8 1-.8 1-.8 1-.6 1-.7 1-.6 1-.5 1-.6 1-.4 1-.4 1-.4 1-.3 1-.3 1-.2 1-.2 1-.1 1-.1h1" stroke-linecap="round" stroke-width="4"/><text x="670" y="697" text-anchor="middle" fill="#833ab4" font-size="1em" font-weight="bold" font-family="monospace">sineInOut</text></g><g><rect x="760" y="710" width="120" height="120" rx="10" fill="rgba(131, 59, 181, 0.03)" stroke="rgba(131, 59, 181, 0.08)"/><path fill="transparent" stroke="url(#a)" d="m770 820 1-1.6 1-1.5 1-1.6 1-1.6 1-1.5 1-1.6 1-1.6 1-1.5 1-1.6 1-1.5 1-1.6 1-1.5 1-1.6 1-1.5 1-1.5 1-1.6 1-1.5 1-1.5 1-1.5 1-1.5 1-1.5 1-1.5 1-1.4 1-1.5 1-1.5 1-1.4 1-1.5 1-1.4 1-1.4 1-1.4 1-1.4 1-1.4 1-1.3 1-1.4 1-1.3 1-1.4 1-1.3 1-1.3 1-1.3 1-1.3 1-1.2 1-1.3 1-1.2 1-1.2 1-1.2 1-1.2 1-1.2 1-1.2 1-1.1 1-1.1 1-1.1 1-1.1 1-1.1 1-1 1-1 1-1.1 1-.9 1-1 1-1 1-.9 1-.9 1-.9 1-.9 1-.8 1-.9 1-.8 1-.8 1-.7 1-.8 1-.7 1-.7 1-.7 1-.6 1-.7 1-.6 1-.6 1-.5 1-.6 1-.5 1-.5 1-.5 1-.4 1-.5 1-.4 1-.3 1-.4 1-.3 1-.3 1-.3 1-.3 1-.2 1-.2 1-.2 1-.2 1-.1 1-.1 1-.1 1-.1h2" stroke-linecap="round" stroke-width="4"/><text x="820" y="697" text-anchor="middle" fill="#833ab4" font-size="1em" font-weight="bold" font-family="monospace">sineOut</text></g><g><rect x="10" y="880" width="120" height="120" rx="10" fill="rgba(131, 59, 181, 0.03)" stroke="rgba(131, 59, 181, 0.08)"/><path fill="transparent" stroke="url(#a)" d="m20 990 1-1 1-1 1-1 1-1 1-1 1-1 1-1 1-1 1-1 1-1 1-1 1-1 1-1 1-1 1-1 1-1 1-1 1-1 1-1 1-1 1-1 1-1 1-1 1-1 1-1 1-1 1-1 1-1 1-1 1-1 1-1 1-1 1-1 1-1 1-1 1-1 1-1 1-1 1-1 1-1 1-1 1-1 1-1 1-1 1-1 1-1 1-1 1-1 1-1 1-1 1-1 1-1 1-1 1-1 1-1 1-1 1-1 1-1 1-1 1-1 1-1 1-1 1-1 1-1 1-1 1-1 1-1 1-1 1-1 1-1 1-1 1-1 1-1 1-1 1-1 1-1 1-1 1-1 1-1 1-1 1-1 1-1 1-1 1-1 1-1 1-1 1-1 1-1 1-1 1-1 1-1 1-1 1-1 1-1 1-1 1-1 1-1 1-1 1-1 1-1" stroke-linecap="round" stroke-width="4"/><text x="70" y="867" text-anchor="middle" fill="#833ab4" font-size="1em" font-weight="bold" font-family="monospace">linear</text></g></svg>