<svg viewBox="0 0 800 2376" xmlns="http://www.w3.org/2000/svg"><defs><linearGradient id="a"><stop offset="0%" stop-color="#833ab4"/><stop offset="50%" stop-color="#fd1d1d"/><stop offset="100%" stop-color="#fcb045"/></linearGradient></defs><rect x="10" y="26" width="180" height="180" rx="10" fill="rgba(131, 59, 181, 0.03)" stroke="rgba(131, 59, 181, 0.08)"/><path fill="transparent" stroke="url(#a)" d="M40 176h1.2l1.2.12h1.2l1.2.12 1.2.24 1.2.12 1.2.24 1.2.24 1.2.24 1.2.24 1.2.36 1.2.36 1.2.24 1.2.36 1.2.36 1.2.36 1.2.36 1.2.48 1.2.36 1.2.36 1.2.36 1.2.48 1.2.36 1.2.36 1.2.36 1.2.36 1.2.36 1.2.36 1.2.36 1.2.36 1.2.24 1.2.36 1.2.24 1.2.24 1.2.24 1.2.12 1.2.12 1.2.12 1.2.12 1.2.12h2.4l1.2-.12 1.2-.12 1.2-.12 1.2-.24 1.2-.12 1.2-.36 1.2-.36 1.2-.36 1.2-.48 1.2-.48 1.2-.6 1.2-.6 1.2-.72 1.2-.72 1.2-.84 1.2-.84 1.2-.96 1.2-1.08 1.2-1.08 1.2-1.2 1.2-1.2 1.2-1.32 1.2-1.44 1.2-1.56 1.2-1.56 1.2-1.68 1.2-1.68 1.2-1.92 1.2-1.92 1.2-2.04 1.2-2.16 1.2-2.16 1.2-2.4 1.2-2.4 1.2-2.52 1.2-2.64 1.2-2.76 1.2-2.88 1.2-3 1.2-3.12 1.2-3.12 1.2-3.36 1.2-3.48 1.2-3.48 1.2-3.72 1.2-3.84 1.2-3.96 1.2-3.96 1.2-4.2 1.2-4.32 1.2-4.44 1.2-4.68 1.2-4.68 1.2-4.92 1.2-5.04 1.2-5.04 1.2-5.4L160 56" stroke-linecap="round" stroke-width="6"/><text x="100" y="18" text-anchor="middle" fill="#833ab4" font-size="16" font-weight="bold" font-family="monospace">backIn</text><rect x="210" y="26" width="180" height="180" rx="10" fill="rgba(131, 59, 181, 0.03)" stroke="rgba(131, 59, 181, 0.08)"/><path fill="transparent" stroke="url(#a)" d="M240 176h1.2l1.2.24 1.2.24 1.2.36 1.2.36 1.2.48 1.2.48 1.2.6 1.2.6 1.2.6 1.2.6 1.2.6 1.2.72 1.2.6 1.2.6 1.2.6 1.2.48 1.2.48 1.2.48 1.2.24 1.2.36 1.2.12 1.2.12 1.2-.12 1.2-.12 1.2-.24 1.2-.36 1.2-.6 1.2-.72 1.2-.84 1.2-1.08 1.2-1.2 1.2-1.44 1.2-1.68 1.2-1.8 1.2-2.16 1.2-2.28 1.2-2.52 1.2-2.76 1.2-3.12 1.2-3.24 1.2-3.72 1.2-3.84 1.2-4.2 1.2-4.44 1.2-4.8 1.2-5.16 1.2-5.52 1.2-5.88L300 116l1.2-6.12 1.2-5.88 1.2-5.52 1.2-5.16 1.2-4.8 1.2-4.44 1.2-4.2 1.2-3.84 1.2-3.72 1.2-3.24 1.2-3.12 1.2-2.76 1.2-2.52 1.2-2.28 1.2-2.16 1.2-1.8 1.2-1.68 1.2-1.44 1.2-1.2 1.2-1.08 1.2-.84 1.2-.72 1.2-.6 1.2-.36 1.2-.24 1.2-.12 1.2-.12 1.2.12 1.2.12 1.2.36 1.2.24 1.2.48 1.2.48 1.2.48 1.2.6 1.2.6 1.2.6 1.2.72 1.2.6 1.2.6 1.2.6 1.2.6 1.2.6 1.2.48 1.2.48 1.2.36 1.2.36 1.2.24 1.2.24h1.2" stroke-linecap="round" stroke-width="6"/><text x="300" y="18" text-anchor="middle" fill="#833ab4" font-size="16" font-weight="bold" font-family="monospace">backInOut</text><rect x="410" y="26" width="180" height="180" rx="10" fill="rgba(131, 59, 181, 0.03)" stroke="rgba(131, 59, 181, 0.08)"/><path fill="transparent" stroke="url(#a)" d="m440 176 1.2-5.4 1.2-5.4 1.2-5.04 1.2-5.04 1.2-4.92 1.2-4.68 1.2-4.68 1.2-4.44 1.2-4.32 1.2-4.2 1.2-3.96 1.2-3.96 1.2-3.84 1.2-3.72 1.2-3.48 1.2-3.48 1.2-3.36 1.2-3.12 1.2-3.12 1.2-3 1.2-2.88 1.2-2.76 1.2-2.64 1.2-2.52 1.2-2.4 1.2-2.4 1.2-2.16 1.2-2.16 1.2-2.04 1.2-1.92 1.2-1.92 1.2-1.68 1.2-1.68 1.2-1.56 1.2-1.56 1.2-1.44 1.2-1.32 1.2-1.2 1.2-1.2 1.2-1.08 1.2-1.08 1.2-.96 1.2-.84 1.2-.84 1.2-.72 1.2-.72 1.2-.6 1.2-.6 1.2-.48L500 47l1.2-.36 1.2-.36 1.2-.36 1.2-.12 1.2-.24 1.2-.12 1.2-.12 1.2-.12h2.4l1.2.12 1.2.12 1.2.12 1.2.12 1.2.12 1.2.24 1.2.24 1.2.24 1.2.36 1.2.24 1.2.36 1.2.36 1.2.36 1.2.36 1.2.36 1.2.36 1.2.36 1.2.36 1.2.48 1.2.36 1.2.36 1.2.36 1.2.48 1.2.36 1.2.36 1.2.36 1.2.36 1.2.24 1.2.36 1.2.36 1.2.24 1.2.24 1.2.24 1.2.24 1.2.12 1.2.24 1.2.12h1.2l1.2.12h1.2" stroke-linecap="round" stroke-width="6"/><text x="500" y="18" text-anchor="middle" fill="#833ab4" font-size="16" font-weight="bold" font-family="monospace">backOut</text><rect x="610" y="26" width="180" height="180" rx="10" fill="rgba(131, 59, 181, 0.03)" stroke="rgba(131, 59, 181, 0.08)"/><path fill="transparent" stroke="url(#a)" d="m640 176 1.2-6.12 1.2-5.88 1.2-5.52 1.2-5.16 1.2-4.8 1.2-4.44 1.2-4.2 1.2-3.84 1.2-3.72 1.2-3.24 1.2-3.12 1.2-2.76 1.2-2.52 1.2-2.28 1.2-2.16 1.2-1.8 1.2-1.68 1.2-1.44 1.2-1.2 1.2-1.08 1.2-.84 1.2-.72 1.2-.6 1.2-.36 1.2-.24 1.2-.12 1.2-.12 1.2.12 1.2.12 1.2.36 1.2.24 1.2.48 1.2.48 1.2.48 1.2.6 1.2.6 1.2.6 1.2.72 1.2.6 1.2.6 1.2.6 1.2.6 1.2.6 1.2.48 1.2.48 1.2.36 1.2.36 1.2.24 1.2.24h2.4l1.2.24 1.2.24 1.2.36 1.2.36 1.2.48 1.2.48 1.2.6 1.2.6 1.2.6 1.2.6 1.2.6 1.2.72 1.2.6 1.2.6 1.2.6 1.2.48 1.2.48 1.2.48 1.2.24 1.2.36 1.2.12 1.2.12 1.2-.12 1.2-.12 1.2-.24 1.2-.36 1.2-.6 1.2-.72 1.2-.84 1.2-1.08 1.2-1.2 1.2-1.44 1.2-1.68 1.2-1.8 1.2-2.16 1.2-2.28 1.2-2.52 1.2-2.76 1.2-3.12 1.2-3.24 1.2-3.72 1.2-3.84 1.2-4.2 1.2-4.44 1.2-4.8 1.2-5.16 1.2-5.52 1.2-5.88L760 56" stroke-linecap="round" stroke-width="6"/><text x="700" y="18" text-anchor="middle" fill="#833ab4" font-size="16" font-weight="bold" font-family="monospace">backOutIn</text><rect x="10" y="242" width="180" height="180" rx="10" fill="rgba(131, 59, 181, 0.03)" stroke="rgba(131, 59, 181, 0.08)"/><path fill="transparent" stroke="url(#a)" d="m40 392 1.2-.72 1.2-.6 1.2-.36 1.2-.12H46l1.2.12 1.2.36 1.2.48 1.2.72 1.2-1.32 1.2-1.32 1.2-1.32 1.2-.96 1.2-.84 1.2-.72 1.2-.48 1.2-.24 1.2-.12h1.2l1.2.24 1.2.48 1.2.6 1.2.72 1.2.96 1.2 1.2 1.2 1.32 1.2 1.44 1.2-1.92 1.2-3 1.2-2.88 1.2-2.76 1.2-2.52 1.2-2.4 1.2-2.16 1.2-1.92 1.2-1.8 1.2-1.68 1.2-1.44 1.2-1.2 1.2-1.08 1.2-.96 1.2-.72 1.2-.48 1.2-.36L94 362h1.2l1.2.24 1.2.36 1.2.6 1.2.72 1.2.84 1.2 1.08 1.2 1.32 1.2 1.44 1.2 1.68 1.2 1.8 1.2 2.04 1.2 2.16 1.2 2.4 1.2 2.52 1.2 2.76 1.2 2.88 1.2 3.12 1.2-.36 1.2-6.48 1.2-6.24 1.2-6 1.2-6 1.2-5.64 1.2-5.52 1.2-5.4 1.2-5.16 1.2-5.04 1.2-4.8 1.2-4.56 1.2-4.44 1.2-4.32 1.2-4.08 1.2-3.84 1.2-3.84 1.2-3.48 1.2-3.36 1.2-3.12 1.2-3 1.2-2.88 1.2-2.64 1.2-2.4 1.2-2.28 1.2-2.04 1.2-1.92 1.2-1.8 1.2-1.56 1.2-1.32 1.2-1.2 1.2-.96 1.2-.84 1.2-.6 1.2-.48 1.2-.24 1.2-.12" stroke-linecap="round" stroke-width="6"/><text x="100" y="234" text-anchor="middle" fill="#833ab4" font-size="16" font-weight="bold" font-family="monospace">bounceIn</text><rect x="210" y="242" width="180" height="180" rx="10" fill="rgba(131, 59, 181, 0.03)" stroke="rgba(131, 59, 181, 0.08)"/><path fill="transparent" stroke="url(#a)" d="m240 392 1.2-.6 1.2-.36 1.2.12 1.2.48 1.2-.36 1.2-1.32 1.2-.96 1.2-.48 1.2-.24 1.2.12 1.2.48 1.2.96 1.2 1.2 1.2-.24 1.2-3 1.2-2.64 1.2-2.16 1.2-1.92 1.2-1.56 1.2-1.2 1.2-.72 1.2-.48 1.2-.12 1.2.24 1.2.72 1.2.96 1.2 1.44 1.2 1.68 1.2 2.16 1.2 2.4 1.2 2.88 1.2 1.32 1.2-6.36 1.2-6 1.2-5.64 1.2-5.28 1.2-4.8 1.2-4.56 1.2-4.2 1.2-3.84 1.2-3.36 1.2-3.12 1.2-2.76 1.2-2.4 1.2-1.92 1.2-1.68 1.2-1.2 1.2-.96 1.2-.48 1.2-.24 1.2-.24 1.2-.48 1.2-.96 1.2-1.2 1.2-1.68 1.2-1.92 1.2-2.4 1.2-2.76 1.2-3.12 1.2-3.36 1.2-3.84 1.2-4.2 1.2-4.56 1.2-4.8 1.2-5.28 1.2-5.64 1.2-6 1.2-6.36 1.2 1.32 1.2 2.88 1.2 2.4 1.2 2.16 1.2 1.68 1.2 1.44 1.2.96 1.2.72 1.2.24 1.2-.12 1.2-.48 1.2-.72 1.2-1.2 1.2-1.56 1.2-1.92 1.2-2.16 1.2-2.64 1.2-3 1.2-.24 1.2 1.2 1.2.96 1.2.48 1.2.12 1.2-.24 1.2-.48 1.2-.96 1.2-1.32 1.2-.36 1.2.48 1.2.12 1.2-.36 1.2-.6" stroke-linecap="round" stroke-width="6"/><text x="300" y="234" text-anchor="middle" fill="#833ab4" font-size="16" font-weight="bold" font-family="monospace">bounceInOut</text><rect x="410" y="242" width="180" height="180" rx="10" fill="rgba(131, 59, 181, 0.03)" stroke="rgba(131, 59, 181, 0.08)"/><path fill="transparent" stroke="url(#a)" d="m440 392 1.2-.12 1.2-.24 1.2-.48 1.2-.6 1.2-.84 1.2-.96 1.2-1.2 1.2-1.32 1.2-1.56 1.2-1.8 1.2-1.92 1.2-2.04 1.2-2.28 1.2-2.4 1.2-2.64 1.2-2.88 1.2-3 1.2-3.12 1.2-3.36 1.2-3.48 1.2-3.84 1.2-3.84 1.2-4.08 1.2-4.32 1.2-4.44 1.2-4.56 1.2-4.8 1.2-5.04 1.2-5.16 1.2-5.4 1.2-5.52 1.2-5.64 1.2-6 1.2-6 1.2-6.24 1.2-6.48 1.2-.36 1.2 3.12 1.2 2.88 1.2 2.76 1.2 2.52 1.2 2.4 1.2 2.16 1.2 2.04 1.2 1.8 1.2 1.68 1.2 1.44 1.2 1.32 1.2 1.08 1.2.84 1.2.72 1.2.6 1.2.36 1.2.24h1.2l1.2-.24 1.2-.36 1.2-.48 1.2-.72 1.2-.84 1.2-1.2 1.2-1.2 1.2-1.44 1.2-1.68 1.2-1.8 1.2-1.92 1.2-2.16 1.2-2.4 1.2-2.52 1.2-2.76 1.2-2.88 1.2-3 1.2-1.92 1.2 1.44 1.2 1.32 1.2 1.2 1.2.96 1.2.72 1.2.6 1.2.48 1.2.24h1.2l1.2-.12 1.2-.24 1.2-.48 1.2-.72 1.2-.84 1.2-.96 1.2-1.32 1.2-1.32 1.2-1.32 1.2.72 1.2.48 1.2.36 1.2.12h1.2l1.2-.12 1.2-.36 1.2-.6 1.2-.72" stroke-linecap="round" stroke-width="6"/><text x="500" y="234" text-anchor="middle" fill="#833ab4" font-size="16" font-weight="bold" font-family="monospace">bounceOut</text><rect x="610" y="242" width="180" height="180" rx="10" fill="rgba(131, 59, 181, 0.03)" stroke="rgba(131, 59, 181, 0.08)"/><path fill="transparent" stroke="url(#a)" d="m640 392 1.2-.24 1.2-.48 1.2-.96 1.2-1.2 1.2-1.68 1.2-1.92 1.2-2.4 1.2-2.76 1.2-3.12 1.2-3.36 1.2-3.84 1.2-4.2 1.2-4.56 1.2-4.8 1.2-5.28 1.2-5.64 1.2-6 1.2-6.36 1.2 1.32 1.2 2.88 1.2 2.4 1.2 2.16 1.2 1.68 1.2 1.44 1.2.96 1.2.72 1.2.24 1.2-.12 1.2-.48 1.2-.72 1.2-1.2 1.2-1.56 1.2-1.92 1.2-2.16 1.2-2.64 1.2-3 1.2-.24 1.2 1.2 1.2.96 1.2.48 1.2.12 1.2-.24 1.2-.48 1.2-.96 1.2-1.32 1.2-.36 1.2.48 1.2.12 1.2-.36 1.2-.6 1.2-.6 1.2-.36 1.2.12 1.2.48 1.2-.36 1.2-1.32 1.2-.96 1.2-.48 1.2-.24 1.2.12 1.2.48 1.2.96 1.2 1.2 1.2-.24 1.2-3 1.2-2.64 1.2-2.16 1.2-1.92 1.2-1.56 1.2-1.2 1.2-.72 1.2-.48 1.2-.12 1.2.24 1.2.72 1.2.96 1.2 1.44 1.2 1.68 1.2 2.16 1.2 2.4 1.2 2.88 1.2 1.32 1.2-6.36 1.2-6 1.2-5.64 1.2-5.28 1.2-4.8 1.2-4.56 1.2-4.2 1.2-3.84 1.2-3.36 1.2-3.12 1.2-2.76 1.2-2.4 1.2-1.92 1.2-1.68 1.2-1.2 1.2-.96 1.2-.48 1.2-.24" stroke-linecap="round" stroke-width="6"/><text x="700" y="234" text-anchor="middle" fill="#833ab4" font-size="16" font-weight="bold" font-family="monospace">bounceOutIn</text><rect x="10" y="458" width="180" height="180" rx="10" fill="rgba(131, 59, 181, 0.03)" stroke="rgba(131, 59, 181, 0.08)"/><path fill="transparent" stroke="url(#a)" d="M40 608H43.6l1.2-.12H46l1.2-.12h1.2l1.2-.12 1.2-.12 1.2-.12 1.2-.12 1.2-.12 1.2-.12 1.2-.24 1.2-.12 1.2-.24 1.2-.24 1.2-.12 1.2-.24 1.2-.24 1.2-.24 1.2-.36 1.2-.24 1.2-.24 1.2-.36 1.2-.24 1.2-.36 1.2-.36 1.2-.36 1.2-.36 1.2-.36 1.2-.48 1.2-.36 1.2-.48 1.2-.36 1.2-.48 1.2-.48 1.2-.48 1.2-.48 1.2-.48 1.2-.6 1.2-.48 1.2-.6 1.2-.6 1.2-.6 1.2-.6 1.2-.6 1.2-.72 1.2-.6 1.2-.72 1.2-.72 1.2-.72 1.2-.72 1.2-.72 1.2-.84 1.2-.84 1.2-.72 1.2-.84 1.2-.96 1.2-.84 1.2-.96 1.2-.84 1.2-.96 1.2-1.08 1.2-.96 1.2-1.08 1.2-1.08 1.2-1.08 1.2-1.08 1.2-1.2 1.2-1.2 1.2-1.2 1.2-1.32 1.2-1.2 1.2-1.44 1.2-1.32 1.2-1.44 1.2-1.44 1.2-1.56L136 560l1.2-1.68 1.2-1.68 1.2-1.68 1.2-1.8 1.2-1.92 1.2-2.04 1.2-2.04 1.2-2.16 1.2-2.28 1.2-2.4 1.2-2.52 1.2-2.76 1.2-2.88 1.2-3.24 1.2-3.48 1.2-3.84 1.2-4.44 1.2-5.28 1.2-6.96L160 488" stroke-linecap="round" stroke-width="6"/><text x="100" y="450" text-anchor="middle" fill="#833ab4" font-size="16" font-weight="bold" font-family="monospace">circIn</text><rect x="210" y="458" width="180" height="180" rx="10" fill="rgba(131, 59, 181, 0.03)" stroke="rgba(131, 59, 181, 0.08)"/><path fill="transparent" stroke="url(#a)" d="M240 608h2.4l1.2-.12 1.2-.12 1.2-.12 1.2-.12 1.2-.12 1.2-.12 1.2-.24 1.2-.24 1.2-.24 1.2-.36 1.2-.24 1.2-.36 1.2-.36 1.2-.36 1.2-.48 1.2-.48 1.2-.48 1.2-.48 1.2-.48 1.2-.6 1.2-.6 1.2-.6 1.2-.72 1.2-.72 1.2-.72 1.2-.84 1.2-.84 1.2-.84 1.2-.96 1.2-.96 1.2-.96 1.2-1.08 1.2-1.2 1.2-1.2 1.2-1.32 1.2-1.32 1.2-1.44L288 584l1.2-1.68 1.2-1.8 1.2-1.92 1.2-2.16 1.2-2.28 1.2-2.64 1.2-3 1.2-3.72 1.2-4.92L300 548l1.2-11.88 1.2-4.92 1.2-3.72 1.2-3 1.2-2.64 1.2-2.28 1.2-2.16 1.2-1.92 1.2-1.8L312 512l1.2-1.56 1.2-1.44 1.2-1.32 1.2-1.32 1.2-1.2 1.2-1.2 1.2-1.08 1.2-.96 1.2-.96 1.2-.96 1.2-.84 1.2-.84 1.2-.84 1.2-.72 1.2-.72 1.2-.72 1.2-.6 1.2-.6 1.2-.6 1.2-.48 1.2-.48 1.2-.48 1.2-.48 1.2-.48 1.2-.36 1.2-.36 1.2-.36 1.2-.24 1.2-.36 1.2-.24 1.2-.24 1.2-.24 1.2-.12 1.2-.12 1.2-.12 1.2-.12 1.2-.12 1.2-.12h2.4" stroke-linecap="round" stroke-width="6"/><text x="300" y="450" text-anchor="middle" fill="#833ab4" font-size="16" font-weight="bold" font-family="monospace">circInOut</text><rect x="410" y="458" width="180" height="180" rx="10" fill="rgba(131, 59, 181, 0.03)" stroke="rgba(131, 59, 181, 0.08)"/><path fill="transparent" stroke="url(#a)" d="m440 608 1.2-16.92 1.2-6.96 1.2-5.28 1.2-4.44 1.2-3.84 1.2-3.48 1.2-3.24 1.2-2.88 1.2-2.76 1.2-2.52 1.2-2.4 1.2-2.28 1.2-2.16 1.2-2.04 1.2-2.04 1.2-1.92 1.2-1.8 1.2-1.68 1.2-1.68L464 536l1.2-1.56 1.2-1.56 1.2-1.44 1.2-1.44 1.2-1.32 1.2-1.44 1.2-1.2 1.2-1.32 1.2-1.2 1.2-1.2 1.2-1.2 1.2-1.08 1.2-1.08 1.2-1.08 1.2-1.08 1.2-.96 1.2-1.08 1.2-.96 1.2-.84 1.2-.96 1.2-.84 1.2-.96 1.2-.84 1.2-.72 1.2-.84 1.2-.84 1.2-.72 1.2-.72 1.2-.72 1.2-.72 1.2-.72 1.2-.6 1.2-.72 1.2-.6 1.2-.6 1.2-.6 1.2-.6 1.2-.6 1.2-.48 1.2-.6 1.2-.48 1.2-.48 1.2-.48 1.2-.48 1.2-.48 1.2-.36 1.2-.48 1.2-.36 1.2-.48 1.2-.36 1.2-.36 1.2-.36 1.2-.36 1.2-.36 1.2-.24 1.2-.36 1.2-.24 1.2-.24 1.2-.36 1.2-.24 1.2-.24 1.2-.24 1.2-.12 1.2-.24 1.2-.24 1.2-.12 1.2-.24 1.2-.12 1.2-.12 1.2-.12 1.2-.12 1.2-.12 1.2-.12h1.2l1.2-.12h1.2l1.2-.12H560" stroke-linecap="round" stroke-width="6"/><text x="500" y="450" text-anchor="middle" fill="#833ab4" font-size="16" font-weight="bold" font-family="monospace">circOut</text><rect x="610" y="458" width="180" height="180" rx="10" fill="rgba(131, 59, 181, 0.03)" stroke="rgba(131, 59, 181, 0.08)"/><path fill="transparent" stroke="url(#a)" d="m640 608 1.2-11.88 1.2-4.92 1.2-3.72 1.2-3 1.2-2.64 1.2-2.28 1.2-2.16 1.2-1.92 1.2-1.8L652 572l1.2-1.56 1.2-1.44 1.2-1.32 1.2-1.32 1.2-1.2 1.2-1.2 1.2-1.08 1.2-.96 1.2-.96 1.2-.96 1.2-.84 1.2-.84 1.2-.84 1.2-.72 1.2-.72 1.2-.72 1.2-.6 1.2-.6 1.2-.6 1.2-.48 1.2-.48 1.2-.48 1.2-.48 1.2-.48 1.2-.36 1.2-.36 1.2-.36 1.2-.24 1.2-.36 1.2-.24 1.2-.24 1.2-.24 1.2-.12 1.2-.12 1.2-.12 1.2-.12 1.2-.12 1.2-.12h4.8l1.2-.12 1.2-.12 1.2-.12 1.2-.12 1.2-.12 1.2-.12 1.2-.24 1.2-.24 1.2-.24 1.2-.36 1.2-.24 1.2-.36 1.2-.36 1.2-.36 1.2-.48 1.2-.48 1.2-.48 1.2-.48 1.2-.48 1.2-.6 1.2-.6 1.2-.6 1.2-.72 1.2-.72 1.2-.72 1.2-.84 1.2-.84 1.2-.84 1.2-.96 1.2-.96 1.2-.96 1.2-1.08 1.2-1.2 1.2-1.2 1.2-1.32 1.2-1.32 1.2-1.44L748 524l1.2-1.68 1.2-1.8 1.2-1.92 1.2-2.16 1.2-2.28 1.2-2.64 1.2-3 1.2-3.72 1.2-4.92L760 488" stroke-linecap="round" stroke-width="6"/><text x="700" y="450" text-anchor="middle" fill="#833ab4" font-size="16" font-weight="bold" font-family="monospace">circOutIn</text><rect x="10" y="674" width="180" height="180" rx="10" fill="rgba(131, 59, 181, 0.03)" stroke="rgba(131, 59, 181, 0.08)"/><path fill="transparent" stroke="url(#a)" d="M40 824h8.4l1.2-.12H53.2l1.2-.12h1.2l1.2-.12H58l1.2-.12 1.2-.12 1.2-.12 1.2-.12 1.2-.12 1.2-.12 1.2-.24 1.2-.12 1.2-.24 1.2-.24 1.2-.24 1.2-.24 1.2-.24 1.2-.24 1.2-.36 1.2-.36 1.2-.36 1.2-.36 1.2-.36 1.2-.48 1.2-.48 1.2-.48 1.2-.48 1.2-.48 1.2-.6 1.2-.6 1.2-.6 1.2-.72 1.2-.6 1.2-.72 1.2-.72 1.2-.84 1.2-.84 1.2-.84 1.2-.84 1.2-.96 1.2-.96 1.2-.96 1.2-.96 1.2-1.08 1.2-1.2 1.2-1.08 1.2-1.2 1.2-1.2 1.2-1.32 1.2-1.32 1.2-1.32 1.2-1.44 1.2-1.44L118 791l1.2-1.44 1.2-1.68 1.2-1.56 1.2-1.8 1.2-1.68 1.2-1.8 1.2-1.8 1.2-1.92 1.2-1.92 1.2-2.04 1.2-2.04 1.2-2.16 1.2-2.16 1.2-2.16 1.2-2.28 1.2-2.28 1.2-2.4 1.2-2.52 1.2-2.52 1.2-2.52 1.2-2.64 1.2-2.76 1.2-2.64 1.2-2.88 1.2-2.88 1.2-3 1.2-3 1.2-3 1.2-3.24 1.2-3.12 1.2-3.36 1.2-3.36 1.2-3.36 1.2-3.48 1.2-3.6" stroke-linecap="round" stroke-width="6"/><text x="100" y="666" text-anchor="middle" fill="#833ab4" font-size="16" font-weight="bold" font-family="monospace">cubicIn</text><rect x="210" y="674" width="180" height="180" rx="10" fill="rgba(131, 59, 181, 0.03)" stroke="rgba(131, 59, 181, 0.08)"/><path fill="transparent" stroke="url(#a)" d="M240 824h6l1.2-.12h1.2l1.2-.12 1.2-.12 1.2-.12 1.2-.12 1.2-.24 1.2-.24 1.2-.24 1.2-.24 1.2-.36 1.2-.48 1.2-.36 1.2-.48 1.2-.6 1.2-.6 1.2-.72 1.2-.72 1.2-.72 1.2-.84 1.2-.96 1.2-1.08 1.2-1.08 1.2-1.2 1.2-1.2 1.2-1.32 1.2-1.44 1.2-1.56 1.2-1.56 1.2-1.8 1.2-1.8 1.2-1.92 1.2-1.92 1.2-2.16 1.2-2.28 1.2-2.4 1.2-2.4 1.2-2.64 1.2-2.76 1.2-2.88 1.2-2.88 1.2-3.12 1.2-3.24 1.2-3.48L300 764l1.2-3.48 1.2-3.48 1.2-3.24 1.2-3.12 1.2-3 1.2-2.76 1.2-2.76 1.2-2.64 1.2-2.4 1.2-2.4 1.2-2.28 1.2-2.16 1.2-1.92 1.2-1.92 1.2-1.92 1.2-1.68 1.2-1.56 1.2-1.56 1.2-1.44 1.2-1.32 1.2-1.2 1.2-1.2 1.2-1.08 1.2-1.08 1.2-.84 1.2-.96 1.2-.72 1.2-.72 1.2-.72 1.2-.6 1.2-.6 1.2-.48 1.2-.36 1.2-.48 1.2-.36 1.2-.24 1.2-.24 1.2-.24 1.2-.24 1.2-.12 1.2-.12 1.2-.12 1.2-.12h1.2l1.2-.12h6" stroke-linecap="round" stroke-width="6"/><text x="300" y="666" text-anchor="middle" fill="#833ab4" font-size="16" font-weight="bold" font-family="monospace">cubicInOut</text><g><rect x="410" y="674" width="180" height="180" rx="10" fill="rgba(131, 59, 181, 0.03)" stroke="rgba(131, 59, 181, 0.08)"/><path fill="transparent" stroke="url(#a)" d="m440 824 1.2-3.6 1.2-3.48 1.2-3.36 1.2-3.36 1.2-3.36 1.2-3.12 1.2-3.24 1.2-3 1.2-3 1.2-3 1.2-2.88 1.2-2.88 1.2-2.64 1.2-2.76 1.2-2.64 1.2-2.52 1.2-2.52 1.2-2.52 1.2-2.4 1.2-2.28 1.2-2.28 1.2-2.16 1.2-2.16 1.2-2.16 1.2-2.04 1.2-2.04 1.2-1.92 1.2-1.92 1.2-1.8 1.2-1.8 1.2-1.68 1.2-1.8 1.2-1.56 1.2-1.68L482 737l1.2-1.56 1.2-1.44 1.2-1.44 1.2-1.32 1.2-1.32 1.2-1.32 1.2-1.2 1.2-1.2 1.2-1.08 1.2-1.2 1.2-1.08 1.2-.96 1.2-.96 1.2-.96 1.2-.96 1.2-.84 1.2-.84 1.2-.84 1.2-.84 1.2-.72 1.2-.72 1.2-.6 1.2-.72 1.2-.6 1.2-.6 1.2-.6 1.2-.48 1.2-.48 1.2-.48 1.2-.48 1.2-.48 1.2-.36 1.2-.36 1.2-.36 1.2-.36 1.2-.36 1.2-.24 1.2-.24 1.2-.24 1.2-.24 1.2-.24 1.2-.24 1.2-.12 1.2-.24 1.2-.12 1.2-.12 1.2-.12 1.2-.12 1.2-.12 1.2-.12h1.2l1.2-.12h1.2l1.2-.12H550.4l1.2-.12h8.4" stroke-linecap="round" stroke-width="6"/><text x="500" y="666" text-anchor="middle" fill="#833ab4" font-size="16" font-weight="bold" font-family="monospace">cubicOut</text></g><g><rect x="610" y="674" width="180" height="180" rx="10" fill="rgba(131, 59, 181, 0.03)" stroke="rgba(131, 59, 181, 0.08)"/><path fill="transparent" stroke="url(#a)" d="m640 824 1.2-3.48 1.2-3.48 1.2-3.24 1.2-3.12 1.2-2.88 1.2-2.88 1.2-2.76 1.2-2.64 1.2-2.4 1.2-2.4 1.2-2.28 1.2-2.16 1.2-1.92 1.2-1.92 1.2-1.8 1.2-1.8 1.2-1.56 1.2-1.56 1.2-1.44 1.2-1.32 1.2-1.2 1.2-1.2 1.2-1.08 1.2-1.08 1.2-.84 1.2-.96 1.2-.72 1.2-.72 1.2-.72 1.2-.6 1.2-.6 1.2-.48 1.2-.36 1.2-.48 1.2-.24 1.2-.36 1.2-.24 1.2-.24 1.2-.24 1.2-.12 1.2-.12 1.2-.12 1.2-.12h1.2l1.2-.12H704.8l1.2-.12h2.4l1.2-.12 1.2-.12 1.2-.12 1.2-.12 1.2-.24 1.2-.24 1.2-.24 1.2-.24 1.2-.36 1.2-.48 1.2-.36 1.2-.48 1.2-.6 1.2-.6 1.2-.72 1.2-.72 1.2-.72 1.2-.84 1.2-.96 1.2-1.08 1.2-1.08 1.2-1.2 1.2-1.2 1.2-1.32 1.2-1.44 1.2-1.56 1.2-1.56 1.2-1.68 1.2-1.92 1.2-1.92 1.2-1.92 1.2-2.16 1.2-2.28 1.2-2.4 1.2-2.4 1.2-2.64 1.2-2.76 1.2-2.88 1.2-2.88 1.2-3.12 1.2-3.24 1.2-3.48L760 704" stroke-linecap="round" stroke-width="6"/><text x="700" y="666" text-anchor="middle" fill="#833ab4" font-size="16" font-weight="bold" font-family="monospace">cubicOutIn</text></g><g><rect x="10" y="890" width="180" height="180" rx="10" fill="rgba(131, 59, 181, 0.03)" stroke="rgba(131, 59, 181, 0.08)"/><path fill="transparent" stroke="url(#a)" d="m40 1040 1.2.12h8.4l1.2-.12h2.4l1.2-.12h1.2l1.2-.12h2.4l1.2-.12h1.2l1.2-.12H70l1.2.12h1.2l1.2.12 1.2.12 1.2.12 1.2.12 1.2.24 1.2.12 1.2.24 1.2.24 1.2.24 1.2.12 1.2.24 1.2.12 1.2.24 1.2.12H92.8l1.2-.12 1.2-.24 1.2-.24 1.2-.48 1.2-.36 1.2-.6 1.2-.6 1.2-.72 1.2-.72 1.2-.84 1.2-.84 1.2-.84 1.2-.84 1.2-.84 1.2-.72 1.2-.48 1.2-.48 1.2-.24 1.2-.12 1.2.24 1.2.6 1.2.72 1.2 1.2 1.2 1.44 1.2 1.92 1.2 2.16 1.2 2.52 1.2 2.76 1.2 3.12 1.2 3.24 1.2 3.36 1.2 3.36 1.2 3.36 1.2 3.12 1.2 2.76 1.2 2.4 1.2 1.8 1.2.96 1.2.12 1.2-.84 1.2-2.04 1.2-3.24 1.2-4.68 1.2-5.88 1.2-7.44 1.2-8.76 1.2-10.08 1.2-11.16 1.2-12.24 1.2-13.08L154 980l1.2-13.56 1.2-13.32 1.2-12.48 1.2-11.28L160 920" stroke-linecap="round" stroke-width="6"/><text x="100" y="882" text-anchor="middle" fill="#833ab4" font-size="16" font-weight="bold" font-family="monospace">elasticIn</text></g><g><rect x="210" y="890" width="180" height="180" rx="10" fill="rgba(131, 59, 181, 0.03)" stroke="rgba(131, 59, 181, 0.08)"/><path fill="transparent" stroke="url(#a)" d="m240 1040 1.2.12h1.2l1.2-.12H247.2l1.2-.12h1.2l1.2-.12h4.8l1.2.12 1.2.12 1.2.12 1.2.24 1.2.24 1.2.12 1.2.24 1.2.12 1.2-.12 1.2-.12 1.2-.36 1.2-.48 1.2-.72 1.2-.72 1.2-.84 1.2-.84 1.2-.6 1.2-.36 1.2.12 1.2.6 1.2 1.32 1.2 2.04 1.2 2.64 1.2 3.12 1.2 3.48 1.2 3.12 1.2 2.64 1.2 1.44 1.2-.48 1.2-2.64 1.2-5.28 1.2-8.04 1.2-10.68 1.2-12.6 1.2-13.56 1.2-12.84L300 980l1.2-10.32 1.2-12.84 1.2-13.56 1.2-12.6L306 920l1.2-8.04 1.2-5.28 1.2-2.64 1.2-.48L312 905l1.2 2.64 1.2 3.12 1.2 3.48 1.2 3.12L318 920l1.2 2.04 1.2 1.32 1.2.6 1.2.12 1.2-.36 1.2-.6 1.2-.84 1.2-.84 1.2-.72 1.2-.72 1.2-.48 1.2-.36 1.2-.12 1.2-.12 1.2.12 1.2.24 1.2.12 1.2.24 1.2.24 1.2.12 1.2.12 1.2.12h4.8l1.2-.12h1.2l1.2-.12H356.4l1.2-.12h1.2l1.2.12" stroke-linecap="round" stroke-width="6"/><text x="300" y="882" text-anchor="middle" fill="#833ab4" font-size="16" font-weight="bold" font-family="monospace">elasticInOut</text></g><g><rect x="410" y="890" width="180" height="180" rx="10" fill="rgba(131, 59, 181, 0.03)" stroke="rgba(131, 59, 181, 0.08)"/><path fill="transparent" stroke="url(#a)" d="m440 1040 1.2-9.36 1.2-11.28 1.2-12.48 1.2-13.32L446 980l1.2-13.44 1.2-13.08 1.2-12.24 1.2-11.16L452 920l1.2-8.76 1.2-7.44 1.2-5.88 1.2-4.68L458 890l1.2-2.04 1.2-.84 1.2.12 1.2.96 1.2 1.8 1.2 2.4 1.2 2.76 1.2 3.12 1.2 3.36L470 905l1.2 3.36 1.2 3.24 1.2 3.12 1.2 2.76L476 920l1.2 2.16 1.2 1.92 1.2 1.44 1.2 1.2 1.2.84 1.2.48 1.2.24 1.2-.12 1.2-.24 1.2-.36 1.2-.6 1.2-.72 1.2-.84 1.2-.84 1.2-.84 1.2-.84 1.2-.84 1.2-.72 1.2-.72 1.2-.6 1.2-.6 1.2-.36 1.2-.48 1.2-.24 1.2-.24 1.2-.12H510.8l1.2.12 1.2.24 1.2.12 1.2.24 1.2.12 1.2.24 1.2.24 1.2.24 1.2.12 1.2.24 1.2.12 1.2.12 1.2.12 1.2.12h1.2l1.2.12h7.2l1.2-.12h1.2l1.2-.12h2.4l1.2-.12h1.2l1.2-.12h2.4l1.2-.12h8.4l1.2.12" stroke-linecap="round" stroke-width="6"/><text x="500" y="882" text-anchor="middle" fill="#833ab4" font-size="16" font-weight="bold" font-family="monospace">elasticOut</text></g><g><rect x="610" y="890" width="180" height="180" rx="10" fill="rgba(131, 59, 181, 0.03)" stroke="rgba(131, 59, 181, 0.08)"/><path fill="transparent" stroke="url(#a)" d="m640 1040 1.2-10.32 1.2-12.84 1.2-13.56 1.2-12.6L646 980l1.2-8.04 1.2-5.28 1.2-2.64 1.2-.48L652 965l1.2 2.64 1.2 3.12 1.2 3.48 1.2 3.12L658 980l1.2 2.04 1.2 1.32 1.2.6 1.2.12 1.2-.36 1.2-.6 1.2-.84 1.2-.84 1.2-.72 1.2-.72 1.2-.48 1.2-.36 1.2-.12 1.2-.12 1.2.12 1.2.24 1.2.12 1.2.24 1.2.24 1.2.12 1.2.12 1.2.12h4.8l1.2-.12h1.2l1.2-.12H696.4l1.2-.12h1.2l1.2.12 1.2.12h1.2l1.2-.12H707.2l1.2-.12h1.2l1.2-.12h4.8l1.2.12 1.2.12 1.2.12 1.2.24 1.2.24 1.2.12 1.2.24 1.2.12 1.2-.12 1.2-.12 1.2-.36 1.2-.48 1.2-.72 1.2-.72 1.2-.84 1.2-.84 1.2-.6 1.2-.36 1.2.12 1.2.6 1.2 1.32L742 980l1.2 2.64 1.2 3.12 1.2 3.48 1.2 3.12L748 995l1.2 1.44 1.2-.48 1.2-2.64 1.2-5.28L754 980l1.2-10.68 1.2-12.6 1.2-13.56 1.2-12.84L760 920" stroke-linecap="round" stroke-width="6"/><text x="700" y="882" text-anchor="middle" fill="#833ab4" font-size="16" font-weight="bold" font-family="monospace">elasticOutIn</text></g><g><rect x="10" y="1106" width="180" height="180" rx="10" fill="rgba(131, 59, 181, 0.03)" stroke="rgba(131, 59, 181, 0.08)"/><path fill="transparent" stroke="url(#a)" d="m40 1256 1.2-.12h6l1.2-.12h7.2l1.2-.12h4.8l1.2-.12H66.4l1.2-.12h1.2l1.2-.12h2.4l1.2-.12h1.2l1.2-.12h1.2l1.2-.12 1.2-.12h1.2l1.2-.12 1.2-.12 1.2-.12 1.2-.12 1.2-.12 1.2-.12 1.2-.12 1.2-.12 1.2-.12 1.2-.24 1.2-.12 1.2-.24 1.2-.12 1.2-.24 1.2-.24 1.2-.24 1.2-.24 1.2-.36 1.2-.24 1.2-.36 1.2-.36 1.2-.36 1.2-.48 1.2-.36 1.2-.48 1.2-.48 1.2-.6 1.2-.6 1.2-.6 1.2-.6 1.2-.72 1.2-.84 1.2-.84 1.2-.84 1.2-.96 1.2-.96 1.2-1.08 1.2-1.2 1.2-1.2 1.2-1.32 1.2-1.44 1.2-1.44 1.2-1.68 1.2-1.8 1.2-1.8 1.2-2.04 1.2-2.16 1.2-2.28 1.2-2.52 1.2-2.64 1.2-2.88 1.2-3 1.2-3.24 1.2-3.48 1.2-3.84 1.2-3.96 1.2-4.32 1.2-4.56 1.2-5.04 1.2-5.28 1.2-5.64 1.2-6.12 1.2-6.48 1.2-7.08 1.2-7.44 1.2-8.04" stroke-linecap="round" stroke-width="6"/><text x="100" y="1098" text-anchor="middle" fill="#833ab4" font-size="16" font-weight="bold" font-family="monospace">expoIn</text></g><g><rect x="210" y="1106" width="180" height="180" rx="10" fill="rgba(131, 59, 181, 0.03)" stroke="rgba(131, 59, 181, 0.08)"/><path fill="transparent" stroke="url(#a)" d="m240 1256 1.2-.12h8.4l1.2-.12h2.4l1.2-.12h2.4l1.2-.12h1.2l1.2-.12 1.2-.12 1.2-.12 1.2-.12 1.2-.12 1.2-.12 1.2-.24 1.2-.24 1.2-.24 1.2-.24 1.2-.36 1.2-.36 1.2-.36 1.2-.48 1.2-.6 1.2-.6 1.2-.72 1.2-.84 1.2-.96 1.2-1.2 1.2-1.2 1.2-1.56 1.2-1.68 1.2-1.92 1.2-2.28 1.2-2.52 1.2-2.88 1.2-3.48 1.2-3.84 1.2-4.44 1.2-5.16 1.2-5.88 1.2-6.72 1.2-7.8 1.2-7.8 1.2-6.72 1.2-5.88 1.2-5.16 1.2-4.44 1.2-3.84 1.2-3.48 1.2-2.88 1.2-2.52 1.2-2.28 1.2-1.92 1.2-1.68 1.2-1.56 1.2-1.2 1.2-1.08 1.2-1.08 1.2-.84 1.2-.72 1.2-.6 1.2-.6 1.2-.48 1.2-.36 1.2-.36 1.2-.36 1.2-.24 1.2-.24 1.2-.24 1.2-.24 1.2-.12 1.2-.12 1.2-.12 1.2-.12 1.2-.12 1.2-.12h1.2l1.2-.12h2.4l1.2-.12h2.4l1.2-.12h8.4l1.2-.12" stroke-linecap="round" stroke-width="6"/><text x="300" y="1098" text-anchor="middle" fill="#833ab4" font-size="16" font-weight="bold" font-family="monospace">expoInOut</text></g><g><rect x="410" y="1106" width="180" height="180" rx="10" fill="rgba(131, 59, 181, 0.03)" stroke="rgba(131, 59, 181, 0.08)"/><path fill="transparent" stroke="url(#a)" d="m440 1256 1.2-8.04 1.2-7.44 1.2-7.08 1.2-6.48 1.2-6.12 1.2-5.64 1.2-5.28 1.2-5.04 1.2-4.56 1.2-4.32 1.2-3.96 1.2-3.84 1.2-3.48 1.2-3.24 1.2-3 1.2-2.88 1.2-2.64 1.2-2.52 1.2-2.28 1.2-2.16 1.2-2.04 1.2-1.8 1.2-1.8 1.2-1.68 1.2-1.44 1.2-1.44 1.2-1.32 1.2-1.2 1.2-1.2 1.2-1.08 1.2-.96 1.2-.96 1.2-.84 1.2-.84 1.2-.84 1.2-.72 1.2-.6 1.2-.6 1.2-.6 1.2-.48 1.2-.6 1.2-.48 1.2-.36 1.2-.48 1.2-.36 1.2-.36 1.2-.36 1.2-.24 1.2-.36 1.2-.24 1.2-.24 1.2-.24 1.2-.24 1.2-.12 1.2-.24 1.2-.12 1.2-.24 1.2-.12 1.2-.12 1.2-.12 1.2-.12 1.2-.12 1.2-.12 1.2-.12 1.2-.12 1.2-.12h1.2l1.2-.12 1.2-.12h1.2l1.2-.12h1.2l1.2-.12h2.4l1.2-.12h1.2l1.2-.12H537.2l1.2-.12h4.8l1.2-.12h7.2l1.2-.12h6l1.2-.12" stroke-linecap="round" stroke-width="6"/><text x="500" y="1098" text-anchor="middle" fill="#833ab4" font-size="16" font-weight="bold" font-family="monospace">expoOut</text></g><g><rect x="610" y="1106" width="180" height="180" rx="10" fill="rgba(131, 59, 181, 0.03)" stroke="rgba(131, 59, 181, 0.08)"/><path fill="transparent" stroke="url(#a)" d="m640 1256 1.2-7.8 1.2-6.72 1.2-5.88 1.2-5.16 1.2-4.44 1.2-3.84 1.2-3.48 1.2-2.88 1.2-2.52 1.2-2.28 1.2-1.92 1.2-1.68 1.2-1.56 1.2-1.2 1.2-1.08 1.2-1.08 1.2-.84 1.2-.72 1.2-.6 1.2-.6 1.2-.48 1.2-.36 1.2-.36 1.2-.36 1.2-.24 1.2-.24 1.2-.24 1.2-.24 1.2-.12 1.2-.12 1.2-.12 1.2-.12 1.2-.12 1.2-.12h1.2l1.2-.12h2.4l1.2-.12h2.4l1.2-.12h8.4l1.2-.12 1.2-.12h8.4l1.2-.12h2.4l1.2-.12h2.4l1.2-.12h1.2l1.2-.12 1.2-.12 1.2-.12 1.2-.12 1.2-.12 1.2-.12 1.2-.24 1.2-.24 1.2-.24 1.2-.24 1.2-.36 1.2-.36 1.2-.36 1.2-.48 1.2-.6 1.2-.6 1.2-.72 1.2-.84 1.2-.96 1.2-1.2 1.2-1.2 1.2-1.56 1.2-1.68 1.2-1.92 1.2-2.28 1.2-2.52 1.2-2.88 1.2-3.48 1.2-3.84 1.2-4.44 1.2-5.16 1.2-5.88 1.2-6.72 1.2-7.8" stroke-linecap="round" stroke-width="6"/><text x="700" y="1098" text-anchor="middle" fill="#833ab4" font-size="16" font-weight="bold" font-family="monospace">expoOutIn</text></g><g><rect x="10" y="1322" width="180" height="180" rx="10" fill="rgba(131, 59, 181, 0.03)" stroke="rgba(131, 59, 181, 0.08)"/><path fill="transparent" stroke="url(#a)" d="M40 1472H65.2l1.2-.12h6l1.2-.12H76l1.2-.12h1.2l1.2-.12 1.2-.12H82l1.2-.12 1.2-.12 1.2-.12 1.2-.12 1.2-.12 1.2-.24 1.2-.12 1.2-.24 1.2-.12 1.2-.24 1.2-.36 1.2-.24 1.2-.24 1.2-.36 1.2-.36 1.2-.48 1.2-.36 1.2-.48 1.2-.48 1.2-.48 1.2-.6 1.2-.6 1.2-.72 1.2-.6 1.2-.84 1.2-.72 1.2-.96 1.2-.84 1.2-.96 1.2-1.08 1.2-1.08 1.2-1.2 1.2-1.2 1.2-1.32 1.2-1.44 1.2-1.44 1.2-1.56 1.2-1.68 1.2-1.8 1.2-1.8 1.2-2.04 1.2-2.04 1.2-2.16 1.2-2.28 1.2-2.4 1.2-2.52 1.2-2.64 1.2-2.76 1.2-2.88 1.2-3.12 1.2-3.12 1.2-3.36 1.2-3.6 1.2-3.6 1.2-3.84 1.2-4.08 1.2-4.2 1.2-4.44 1.2-4.56 1.2-4.8 1.2-4.92 1.2-5.28 1.2-5.4 1.2-5.64 1.2-5.88" stroke-linecap="round" stroke-width="6"/><text x="100" y="1314" text-anchor="middle" fill="#833ab4" font-size="16" font-weight="bold" font-family="monospace">qinticIn</text></g><g><rect x="210" y="1322" width="180" height="180" rx="10" fill="rgba(131, 59, 181, 0.03)" stroke="rgba(131, 59, 181, 0.08)"/><path fill="transparent" stroke="url(#a)" d="M240 1472H254.4l1.2-.12h2.4l1.2-.12h1.2l1.2-.12 1.2-.12 1.2-.12 1.2-.24 1.2-.12 1.2-.24 1.2-.36 1.2-.36 1.2-.36 1.2-.48 1.2-.6 1.2-.6 1.2-.72 1.2-.84 1.2-.96 1.2-1.08 1.2-1.2 1.2-1.32 1.2-1.56 1.2-1.68 1.2-1.92 1.2-2.04 1.2-2.4 1.2-2.52 1.2-2.88 1.2-3.12 1.2-3.48 1.2-3.72 1.2-4.2 1.2-4.44 1.2-4.92 1.2-5.28 1.2-5.76 1.2-5.76 1.2-5.28 1.2-4.92 1.2-4.44 1.2-4.2 1.2-3.72 1.2-3.48 1.2-3.12 1.2-2.88 1.2-2.52 1.2-2.4 1.2-2.04 1.2-1.92 1.2-1.68 1.2-1.56 1.2-1.32 1.2-1.2 1.2-1.08 1.2-.96 1.2-.84 1.2-.72 1.2-.6 1.2-.6 1.2-.48 1.2-.36 1.2-.36 1.2-.36 1.2-.24 1.2-.12 1.2-.24 1.2-.12 1.2-.12 1.2-.12h1.2l1.2-.12h2.4l1.2-.12H360" stroke-linecap="round" stroke-width="6"/><text x="300" y="1314" text-anchor="middle" fill="#833ab4" font-size="16" font-weight="bold" font-family="monospace">qinticInOut</text></g><g><rect x="410" y="1322" width="180" height="180" rx="10" fill="rgba(131, 59, 181, 0.03)" stroke="rgba(131, 59, 181, 0.08)"/><path fill="transparent" stroke="url(#a)" d="m440 1472 1.2-5.88 1.2-5.64 1.2-5.4 1.2-5.28 1.2-4.92 1.2-4.8 1.2-4.56 1.2-4.44 1.2-4.2 1.2-4.08 1.2-3.84 1.2-3.6 1.2-3.6 1.2-3.36 1.2-3.12 1.2-3.12 1.2-2.88 1.2-2.76 1.2-2.64 1.2-2.52 1.2-2.4 1.2-2.28 1.2-2.16 1.2-2.04 1.2-2.04 1.2-1.8 1.2-1.8 1.2-1.68 1.2-1.56 1.2-1.44 1.2-1.44 1.2-1.32 1.2-1.2 1.2-1.2 1.2-1.08 1.2-1.08 1.2-.96 1.2-.84 1.2-.96 1.2-.72 1.2-.84 1.2-.6 1.2-.72 1.2-.6 1.2-.6 1.2-.48 1.2-.48 1.2-.48 1.2-.36 1.2-.48 1.2-.36 1.2-.36 1.2-.24 1.2-.24 1.2-.36 1.2-.24 1.2-.12 1.2-.24 1.2-.12 1.2-.24 1.2-.12 1.2-.12 1.2-.12 1.2-.12 1.2-.12h1.2l1.2-.12 1.2-.12h1.2l1.2-.12h2.4l1.2-.12h6l1.2-.12H560" stroke-linecap="round" stroke-width="6"/><text x="500" y="1314" text-anchor="middle" fill="#833ab4" font-size="16" font-weight="bold" font-family="monospace">qinticOut</text></g><g><rect x="610" y="1322" width="180" height="180" rx="10" fill="rgba(131, 59, 181, 0.03)" stroke="rgba(131, 59, 181, 0.08)"/><path fill="transparent" stroke="url(#a)" d="m640 1472 1.2-5.76 1.2-5.28 1.2-4.92 1.2-4.44 1.2-4.2 1.2-3.72 1.2-3.48 1.2-3.12 1.2-2.88 1.2-2.52 1.2-2.4 1.2-2.04 1.2-1.92 1.2-1.68 1.2-1.56 1.2-1.32 1.2-1.2 1.2-1.08 1.2-.96 1.2-.84 1.2-.72 1.2-.6 1.2-.6 1.2-.48 1.2-.36 1.2-.36 1.2-.36 1.2-.24 1.2-.12 1.2-.24 1.2-.12 1.2-.12 1.2-.12h1.2l1.2-.12h2.4l1.2-.12H714.4l1.2-.12h2.4l1.2-.12h1.2l1.2-.12 1.2-.12 1.2-.12 1.2-.24 1.2-.12 1.2-.24 1.2-.36 1.2-.36 1.2-.36 1.2-.48 1.2-.6 1.2-.6 1.2-.72 1.2-.84 1.2-.96 1.2-1.08 1.2-1.2 1.2-1.32 1.2-1.56 1.2-1.68 1.2-1.92 1.2-2.04 1.2-2.4 1.2-2.52 1.2-2.88 1.2-3.12 1.2-3.48 1.2-3.72 1.2-4.2 1.2-4.44 1.2-4.92 1.2-5.28 1.2-5.76" stroke-linecap="round" stroke-width="6"/><text x="700" y="1314" text-anchor="middle" fill="#833ab4" font-size="16" font-weight="bold" font-family="monospace">qinticOutIn</text></g><g><rect x="10" y="1538" width="180" height="180" rx="10" fill="rgba(131, 59, 181, 0.03)" stroke="rgba(131, 59, 181, 0.08)"/><path fill="transparent" stroke="url(#a)" d="M40 1688h2.4l1.2-.12 1.2-.12H46l1.2-.24 1.2-.12 1.2-.12 1.2-.24 1.2-.24 1.2-.24 1.2-.24 1.2-.36 1.2-.36 1.2-.24 1.2-.48 1.2-.36 1.2-.36 1.2-.48 1.2-.48 1.2-.48 1.2-.48 1.2-.6 1.2-.6 1.2-.48 1.2-.72 1.2-.6 1.2-.6 1.2-.72 1.2-.72 1.2-.72 1.2-.72 1.2-.84 1.2-.84 1.2-.72 1.2-.96 1.2-.84 1.2-.84 1.2-.96 1.2-.96 1.2-.96 1.2-.96 1.2-1.08 1.2-1.08 1.2-.96 1.2-1.2 1.2-1.08 1.2-1.08 1.2-1.2 1.2-1.2 1.2-1.2 1.2-1.2 1.2-1.32 1.2-1.32 1.2-1.2 1.2-1.44 1.2-1.32 1.2-1.32 1.2-1.44 1.2-1.44 1.2-1.44 1.2-1.44 1.2-1.56 1.2-1.56 1.2-1.56 1.2-1.56 1.2-1.56 1.2-1.56 1.2-1.68 1.2-1.68 1.2-1.68 1.2-1.68 1.2-1.8 1.2-1.8 1.2-1.68 1.2-1.92 1.2-1.8 1.2-1.8 1.2-1.92 1.2-1.92 1.2-1.92 1.2-1.92 1.2-2.04 1.2-2.04 1.2-1.92 1.2-2.16 1.2-2.04 1.2-2.04 1.2-2.16 1.2-2.16 1.2-2.16 1.2-2.16 1.2-2.28 1.2-2.28 1.2-2.28 1.2-2.28 1.2-2.28 1.2-2.28 1.2-2.4 1.2-2.4" stroke-linecap="round" stroke-width="6"/><text x="100" y="1530" text-anchor="middle" fill="#833ab4" font-size="16" font-weight="bold" font-family="monospace">quadIn</text></g><g><rect x="210" y="1538" width="180" height="180" rx="10" fill="rgba(131, 59, 181, 0.03)" stroke="rgba(131, 59, 181, 0.08)"/><path fill="transparent" stroke="url(#a)" d="M240 1688h1.2l1.2-.12 1.2-.12 1.2-.12 1.2-.24 1.2-.24 1.2-.36 1.2-.36 1.2-.36 1.2-.48 1.2-.48 1.2-.6 1.2-.6 1.2-.6 1.2-.72 1.2-.72 1.2-.84 1.2-.84 1.2-.84 1.2-.96 1.2-.96 1.2-1.08 1.2-1.08 1.2-1.08 1.2-1.2 1.2-1.2 1.2-1.32 1.2-1.32 1.2-1.32 1.2-1.44 1.2-1.44 1.2-1.56 1.2-1.56 1.2-1.56 1.2-1.68 1.2-1.68 1.2-1.8 1.2-1.8 1.2-1.8 1.2-1.92 1.2-1.92 1.2-2.04 1.2-2.04 1.2-2.04 1.2-2.16 1.2-2.16 1.2-2.28 1.2-2.28 1.2-2.28 1.2-2.4 1.2-2.4 1.2-2.28 1.2-2.28 1.2-2.28 1.2-2.16 1.2-2.16 1.2-2.04 1.2-2.04 1.2-2.04 1.2-1.92 1.2-1.92 1.2-1.8 1.2-1.8 1.2-1.8 1.2-1.68 1.2-1.68 1.2-1.56 1.2-1.56 1.2-1.56 1.2-1.44 1.2-1.44 1.2-1.32 1.2-1.32 1.2-1.32 1.2-1.2 1.2-1.2 1.2-1.08 1.2-1.08 1.2-1.08 1.2-.96 1.2-.96 1.2-.84 1.2-.84 1.2-.84 1.2-.72 1.2-.72 1.2-.6 1.2-.6 1.2-.6 1.2-.48 1.2-.48 1.2-.36 1.2-.36 1.2-.36 1.2-.24 1.2-.24 1.2-.12 1.2-.12 1.2-.12h1.2" stroke-linecap="round" stroke-width="6"/><text x="300" y="1530" text-anchor="middle" fill="#833ab4" font-size="16" font-weight="bold" font-family="monospace">quadInOut</text></g><g><rect x="410" y="1538" width="180" height="180" rx="10" fill="rgba(131, 59, 181, 0.03)" stroke="rgba(131, 59, 181, 0.08)"/><path fill="transparent" stroke="url(#a)" d="m440 1688 1.2-2.4 1.2-2.4 1.2-2.28 1.2-2.28 1.2-2.28 1.2-2.28 1.2-2.28 1.2-2.28 1.2-2.16 1.2-2.16 1.2-2.16 1.2-2.16 1.2-2.04 1.2-2.04 1.2-2.16 1.2-1.92 1.2-2.04 1.2-2.04 1.2-1.92 1.2-1.92 1.2-1.92 1.2-1.92 1.2-1.8 1.2-1.8 1.2-1.8 1.2-1.8 1.2-1.8 1.2-1.8 1.2-1.68 1.2-1.68 1.2-1.68 1.2-1.68 1.2-1.56 1.2-1.56 1.2-1.68 1.2-1.44 1.2-1.56 1.2-1.56 1.2-1.44 1.2-1.44 1.2-1.44 1.2-1.44 1.2-1.32 1.2-1.32 1.2-1.32 1.2-1.32 1.2-1.32 1.2-1.32 1.2-1.2 1.2-1.2 1.2-1.2 1.2-1.2 1.2-1.08 1.2-1.08 1.2-1.2 1.2-.96 1.2-1.08 1.2-1.08 1.2-.96 1.2-.96 1.2-.96 1.2-.96 1.2-.84 1.2-.84 1.2-.96 1.2-.72 1.2-.84 1.2-.84 1.2-.72 1.2-.72 1.2-.72 1.2-.72 1.2-.6 1.2-.6 1.2-.6 1.2-.6 1.2-.6 1.2-.6 1.2-.48 1.2-.48 1.2-.48 1.2-.48 1.2-.36 1.2-.36 1.2-.48 1.2-.24 1.2-.36 1.2-.36 1.2-.24 1.2-.24 1.2-.24 1.2-.24 1.2-.12 1.2-.12 1.2-.24h1.2l1.2-.12 1.2-.12h2.4" stroke-linecap="round" stroke-width="6"/><text x="500" y="1530" text-anchor="middle" fill="#833ab4" font-size="16" font-weight="bold" font-family="monospace">quadOut</text></g><g><rect x="610" y="1538" width="180" height="180" rx="10" fill="rgba(131, 59, 181, 0.03)" stroke="rgba(131, 59, 181, 0.08)"/><path fill="transparent" stroke="url(#a)" d="m640 1688 1.2-2.4 1.2-2.28 1.2-2.28 1.2-2.28 1.2-2.16 1.2-2.16 1.2-2.04 1.2-2.04 1.2-2.04 1.2-1.92 1.2-1.92 1.2-1.8 1.2-1.8 1.2-1.8 1.2-1.68 1.2-1.68 1.2-1.56 1.2-1.56 1.2-1.56 1.2-1.44 1.2-1.44 1.2-1.32 1.2-1.32 1.2-1.32 1.2-1.2 1.2-1.2 1.2-1.08 1.2-1.08 1.2-1.08 1.2-.96 1.2-.96 1.2-.84 1.2-.84 1.2-.84 1.2-.72 1.2-.72 1.2-.6 1.2-.6 1.2-.6 1.2-.48 1.2-.48 1.2-.36 1.2-.36 1.2-.36 1.2-.24 1.2-.24 1.2-.12 1.2-.12 1.2-.12h2.4l1.2-.12 1.2-.12 1.2-.12 1.2-.24 1.2-.24 1.2-.36 1.2-.36 1.2-.36 1.2-.48 1.2-.48 1.2-.6 1.2-.6 1.2-.6 1.2-.72 1.2-.72 1.2-.84 1.2-.84 1.2-.84 1.2-.96 1.2-.96 1.2-1.08 1.2-1.08 1.2-1.08 1.2-1.2 1.2-1.2 1.2-1.32 1.2-1.32 1.2-1.32 1.2-1.44 1.2-1.44 1.2-1.56 1.2-1.56 1.2-1.56 1.2-1.68 1.2-1.68 1.2-1.8 1.2-1.8 1.2-1.8 1.2-1.92 1.2-1.92 1.2-2.04 1.2-2.04 1.2-2.04 1.2-2.16 1.2-2.16 1.2-2.28 1.2-2.28 1.2-2.28 1.2-2.4" stroke-linecap="round" stroke-width="6"/><text x="700" y="1530" text-anchor="middle" fill="#833ab4" font-size="16" font-weight="bold" font-family="monospace">quadOutIn</text></g><g><rect x="10" y="1754" width="180" height="180" rx="10" fill="rgba(131, 59, 181, 0.03)" stroke="rgba(131, 59, 181, 0.08)"/><path fill="transparent" stroke="url(#a)" d="M40 1904H56.8l1.2-.12h4.8l1.2-.12h2.4l1.2-.12h1.2l1.2-.12 1.2-.12h1.2l1.2-.12 1.2-.12 1.2-.12 1.2-.12 1.2-.12 1.2-.24 1.2-.12 1.2-.24 1.2-.24 1.2-.24 1.2-.24 1.2-.24 1.2-.36 1.2-.24 1.2-.36 1.2-.36 1.2-.36 1.2-.48 1.2-.48 1.2-.48 1.2-.48 1.2-.6 1.2-.48 1.2-.72 1.2-.6 1.2-.72 1.2-.72 1.2-.84 1.2-.72 1.2-.96 1.2-.84 1.2-.96 1.2-1.08 1.2-.96 1.2-1.2 1.2-1.2 1.2-1.2 1.2-1.32 1.2-1.32 1.2-1.44 1.2-1.44 1.2-1.56 1.2-1.56 1.2-1.68 1.2-1.8 1.2-1.8 1.2-1.92 1.2-1.92 1.2-2.16 1.2-2.16 1.2-2.16 1.2-2.4 1.2-2.4 1.2-2.4 1.2-2.64 1.2-2.76 1.2-2.76 1.2-2.88 1.2-3 1.2-3.12 1.2-3.24 1.2-3.24 1.2-3.48 1.2-3.6 1.2-3.6 1.2-3.84 1.2-3.96 1.2-4.08 1.2-4.08 1.2-4.32 1.2-4.44 1.2-4.68 1.2-4.68" stroke-linecap="round" stroke-width="6"/><text x="100" y="1746" text-anchor="middle" fill="#833ab4" font-size="16" font-weight="bold" font-family="monospace">quarticIn</text></g><g><rect x="210" y="1754" width="180" height="180" rx="10" fill="rgba(131, 59, 181, 0.03)" stroke="rgba(131, 59, 181, 0.08)"/><path fill="transparent" stroke="url(#a)" d="M240 1904h9.6l1.2-.12h2.4l1.2-.12h1.2l1.2-.12 1.2-.12 1.2-.12 1.2-.24 1.2-.12 1.2-.24 1.2-.36 1.2-.36 1.2-.36 1.2-.36 1.2-.6 1.2-.48 1.2-.72 1.2-.72 1.2-.72 1.2-.96 1.2-.96 1.2-1.08 1.2-1.2 1.2-1.32 1.2-1.44 1.2-1.56 1.2-1.68 1.2-1.92 1.2-2.04 1.2-2.16 1.2-2.4 1.2-2.52 1.2-2.76 1.2-3 1.2-3.12 1.2-3.36 1.2-3.6 1.2-3.84 1.2-4.2 1.2-4.32 1.2-4.68 1.2-4.68 1.2-4.32 1.2-4.2 1.2-3.84 1.2-3.6 1.2-3.36 1.2-3.12 1.2-3 1.2-2.76 1.2-2.52 1.2-2.4 1.2-2.16 1.2-2.04 1.2-1.92 1.2-1.68 1.2-1.56 1.2-1.44 1.2-1.32 1.2-1.2 1.2-1.08 1.2-.96 1.2-.96 1.2-.72 1.2-.72 1.2-.72 1.2-.48 1.2-.6 1.2-.36 1.2-.36 1.2-.36 1.2-.36 1.2-.24 1.2-.12 1.2-.24 1.2-.12 1.2-.12 1.2-.12h1.2l1.2-.12h2.4l1.2-.12h9.6" stroke-linecap="round" stroke-width="6"/><text x="300" y="1746" text-anchor="middle" fill="#833ab4" font-size="16" font-weight="bold" font-family="monospace">quarticInOut</text></g><g><rect x="410" y="1754" width="180" height="180" rx="10" fill="rgba(131, 59, 181, 0.03)" stroke="rgba(131, 59, 181, 0.08)"/><path fill="transparent" stroke="url(#a)" d="m440 1904 1.2-4.68 1.2-4.68 1.2-4.44 1.2-4.32 1.2-4.08 1.2-4.08 1.2-3.96 1.2-3.84 1.2-3.6 1.2-3.6 1.2-3.48 1.2-3.24 1.2-3.24 1.2-3.12 1.2-3 1.2-2.88 1.2-2.76 1.2-2.76 1.2-2.64 1.2-2.4 1.2-2.4 1.2-2.4 1.2-2.16 1.2-2.16 1.2-2.16 1.2-1.92 1.2-1.92 1.2-1.8 1.2-1.8 1.2-1.68 1.2-1.56 1.2-1.56 1.2-1.44 1.2-1.44 1.2-1.32 1.2-1.32 1.2-1.2 1.2-1.2 1.2-1.2 1.2-.96 1.2-1.08 1.2-.96 1.2-.84 1.2-.96 1.2-.72 1.2-.84 1.2-.72 1.2-.72 1.2-.6 1.2-.6 1.2-.6 1.2-.6 1.2-.48 1.2-.48 1.2-.48 1.2-.48 1.2-.36 1.2-.36 1.2-.36 1.2-.24 1.2-.36 1.2-.24 1.2-.24 1.2-.24 1.2-.24 1.2-.24 1.2-.12 1.2-.24 1.2-.12 1.2-.12 1.2-.12 1.2-.12 1.2-.12h1.2l1.2-.12 1.2-.12h1.2l1.2-.12h2.4l1.2-.12h4.8l1.2-.12H560" stroke-linecap="round" stroke-width="6"/><text x="500" y="1746" text-anchor="middle" fill="#833ab4" font-size="16" font-weight="bold" font-family="monospace">quarticOut</text></g><g><rect x="610" y="1754" width="180" height="180" rx="10" fill="rgba(131, 59, 181, 0.03)" stroke="rgba(131, 59, 181, 0.08)"/><path fill="transparent" stroke="url(#a)" d="m640 1904 1.2-4.68 1.2-4.32 1.2-4.2 1.2-3.84 1.2-3.6 1.2-3.36 1.2-3.12 1.2-3 1.2-2.76 1.2-2.52 1.2-2.4 1.2-2.16 1.2-2.04 1.2-1.92 1.2-1.68 1.2-1.56 1.2-1.44 1.2-1.32 1.2-1.2 1.2-1.08 1.2-.96 1.2-.96 1.2-.72 1.2-.72 1.2-.72 1.2-.48 1.2-.6 1.2-.36 1.2-.36 1.2-.36 1.2-.36 1.2-.24 1.2-.12 1.2-.24 1.2-.12 1.2-.12 1.2-.12h1.2l1.2-.12h2.4l1.2-.12H709.6l1.2-.12h2.4l1.2-.12h1.2l1.2-.12 1.2-.12 1.2-.12 1.2-.24 1.2-.12 1.2-.24 1.2-.36 1.2-.36 1.2-.36 1.2-.36 1.2-.6 1.2-.48 1.2-.72 1.2-.72 1.2-.72 1.2-.96 1.2-.96 1.2-1.08 1.2-1.2 1.2-1.32 1.2-1.44 1.2-1.56 1.2-1.68 1.2-1.92 1.2-2.04 1.2-2.16 1.2-2.4 1.2-2.52 1.2-2.76 1.2-3 1.2-3.12 1.2-3.36 1.2-3.6 1.2-3.84 1.2-4.2 1.2-4.32 1.2-4.68" stroke-linecap="round" stroke-width="6"/><text x="700" y="1746" text-anchor="middle" fill="#833ab4" font-size="16" font-weight="bold" font-family="monospace">quarticOutIn</text></g><g><rect x="10" y="1970" width="180" height="180" rx="10" fill="rgba(131, 59, 181, 0.03)" stroke="rgba(131, 59, 181, 0.08)"/><path fill="transparent" stroke="url(#a)" d="M40 2120h2.4l1.2-.12 1.2-.12 1.2-.12 1.2-.12 1.2-.24 1.2-.24 1.2-.24 1.2-.24 1.2-.36 1.2-.36 1.2-.36 1.2-.36 1.2-.48 1.2-.36 1.2-.48 1.2-.6 1.2-.48 1.2-.6 1.2-.6 1.2-.6 1.2-.72 1.2-.6 1.2-.72 1.2-.72 1.2-.84 1.2-.72 1.2-.84 1.2-.84 1.2-.84 1.2-.96 1.2-.84 1.2-.96 1.2-.96 1.2-1.08 1.2-.96 1.2-1.08 1.2-1.08 1.2-1.08 1.2-1.08 1.2-1.2 1.2-1.2 1.2-1.08 1.2-1.32 1.2-1.2 1.2-1.2 1.2-1.32 1.2-1.32 1.2-1.32 1.2-1.32 1.2-1.32 1.2-1.44 1.2-1.44 1.2-1.44 1.2-1.44 1.2-1.44 1.2-1.44 1.2-1.56 1.2-1.44 1.2-1.56 1.2-1.56 1.2-1.56 1.2-1.56 1.2-1.68 1.2-1.56 1.2-1.68 1.2-1.56 1.2-1.68 1.2-1.68 1.2-1.68 1.2-1.68 1.2-1.68 1.2-1.8 1.2-1.68 1.2-1.8 1.2-1.8 1.2-1.68 1.2-1.8 1.2-1.8 1.2-1.8 1.2-1.8 1.2-1.8 1.2-1.8 1.2-1.92 1.2-1.8 1.2-1.8 1.2-1.92 1.2-1.8 1.2-1.92 1.2-1.8 1.2-1.92 1.2-1.8 1.2-1.92 1.2-1.92 1.2-1.8 1.2-1.92 1.2-1.92 1.2-1.8 1.2-1.92" stroke-linecap="round" stroke-width="6"/><text x="100" y="1962" text-anchor="middle" fill="#833ab4" font-size="16" font-weight="bold" font-family="monospace">sineIn</text></g><g><rect x="210" y="1970" width="180" height="180" rx="10" fill="rgba(131, 59, 181, 0.03)" stroke="rgba(131, 59, 181, 0.08)"/><path fill="transparent" stroke="url(#a)" d="M240 2120h1.2l1.2-.12 1.2-.12 1.2-.24 1.2-.24 1.2-.36 1.2-.36 1.2-.48 1.2-.48 1.2-.48 1.2-.72 1.2-.6 1.2-.72 1.2-.84 1.2-.72 1.2-.96 1.2-.96 1.2-.96 1.2-.96 1.2-1.08 1.2-1.2 1.2-1.2 1.2-1.2 1.2-1.32 1.2-1.2 1.2-1.44 1.2-1.32 1.2-1.44 1.2-1.56 1.2-1.44 1.2-1.56 1.2-1.56 1.2-1.56 1.2-1.68 1.2-1.68 1.2-1.68 1.2-1.68 1.2-1.8 1.2-1.8 1.2-1.68 1.2-1.92 1.2-1.8 1.2-1.8 1.2-1.8 1.2-1.92 1.2-1.8 1.2-1.92 1.2-1.92 1.2-1.8 1.2-1.92 1.2-1.92 1.2-1.8 1.2-1.92 1.2-1.92 1.2-1.8 1.2-1.92 1.2-1.8 1.2-1.8 1.2-1.8 1.2-1.92 1.2-1.68 1.2-1.8 1.2-1.8 1.2-1.68 1.2-1.68 1.2-1.68 1.2-1.68 1.2-1.56 1.2-1.56 1.2-1.56 1.2-1.44 1.2-1.56 1.2-1.44 1.2-1.32 1.2-1.44 1.2-1.2 1.2-1.32 1.2-1.2 1.2-1.2 1.2-1.2 1.2-1.08 1.2-.96 1.2-.96 1.2-.96 1.2-.96 1.2-.72 1.2-.84 1.2-.72 1.2-.6 1.2-.72 1.2-.48 1.2-.48 1.2-.48 1.2-.36 1.2-.36 1.2-.24 1.2-.24 1.2-.12 1.2-.12h1.2" stroke-linecap="round" stroke-width="6"/><text x="300" y="1962" text-anchor="middle" fill="#833ab4" font-size="16" font-weight="bold" font-family="monospace">sineInOut</text></g><g><rect x="410" y="1970" width="180" height="180" rx="10" fill="rgba(131, 59, 181, 0.03)" stroke="rgba(131, 59, 181, 0.08)"/><path fill="transparent" stroke="url(#a)" d="m440 2120 1.2-1.92 1.2-1.8 1.2-1.92 1.2-1.92 1.2-1.8 1.2-1.92 1.2-1.92 1.2-1.8 1.2-1.92 1.2-1.8 1.2-1.92 1.2-1.8 1.2-1.92 1.2-1.8 1.2-1.8 1.2-1.92 1.2-1.8 1.2-1.8 1.2-1.8 1.2-1.8 1.2-1.8 1.2-1.8 1.2-1.68 1.2-1.8 1.2-1.8 1.2-1.68 1.2-1.8 1.2-1.68 1.2-1.68 1.2-1.68 1.2-1.68 1.2-1.68 1.2-1.56 1.2-1.68 1.2-1.56 1.2-1.68 1.2-1.56 1.2-1.56 1.2-1.56 1.2-1.56 1.2-1.44 1.2-1.56 1.2-1.44 1.2-1.44 1.2-1.44 1.2-1.44 1.2-1.44 1.2-1.44 1.2-1.32 1.2-1.32 1.2-1.32 1.2-1.32 1.2-1.32 1.2-1.2 1.2-1.2 1.2-1.32 1.2-1.08 1.2-1.2 1.2-1.2 1.2-1.08 1.2-1.08 1.2-1.08 1.2-1.08 1.2-.96 1.2-1.08 1.2-.96 1.2-.96 1.2-.84 1.2-.96 1.2-.84 1.2-.84 1.2-.84 1.2-.72 1.2-.84 1.2-.72 1.2-.72 1.2-.6 1.2-.72 1.2-.6 1.2-.6 1.2-.6 1.2-.48 1.2-.6 1.2-.48 1.2-.36 1.2-.48 1.2-.36 1.2-.36 1.2-.36 1.2-.36 1.2-.24 1.2-.24 1.2-.24 1.2-.24 1.2-.12 1.2-.12 1.2-.12 1.2-.12h2.4" stroke-linecap="round" stroke-width="6"/><text x="500" y="1962" text-anchor="middle" fill="#833ab4" font-size="16" font-weight="bold" font-family="monospace">sineOut</text></g><g><rect x="610" y="1970" width="180" height="180" rx="10" fill="rgba(131, 59, 181, 0.03)" stroke="rgba(131, 59, 181, 0.08)"/><path fill="transparent" stroke="url(#a)" d="m640 2120 1.2-1.92 1.2-1.8 1.2-1.92 1.2-1.92 1.2-1.8 1.2-1.92 1.2-1.8 1.2-1.8 1.2-1.8 1.2-1.92 1.2-1.68 1.2-1.8 1.2-1.8 1.2-1.68 1.2-1.68 1.2-1.68 1.2-1.68 1.2-1.56 1.2-1.56 1.2-1.56 1.2-1.44 1.2-1.56 1.2-1.44 1.2-1.32 1.2-1.44 1.2-1.2 1.2-1.32 1.2-1.2 1.2-1.2 1.2-1.2 1.2-1.08 1.2-.96 1.2-.96 1.2-.96 1.2-.96 1.2-.72 1.2-.84 1.2-.72 1.2-.6 1.2-.72 1.2-.48 1.2-.48 1.2-.48 1.2-.36 1.2-.36 1.2-.24 1.2-.24 1.2-.12 1.2-.12h2.4l1.2-.12 1.2-.12 1.2-.24 1.2-.24 1.2-.36 1.2-.36 1.2-.48 1.2-.48 1.2-.48 1.2-.72 1.2-.6 1.2-.72 1.2-.84 1.2-.72 1.2-.96 1.2-.96 1.2-.96 1.2-.96 1.2-1.08 1.2-1.2 1.2-1.2 1.2-1.2 1.2-1.32 1.2-1.2 1.2-1.44 1.2-1.32 1.2-1.44 1.2-1.56 1.2-1.44 1.2-1.56 1.2-1.56 1.2-1.56 1.2-1.68 1.2-1.68 1.2-1.68 1.2-1.68 1.2-1.8 1.2-1.8 1.2-1.68 1.2-1.92 1.2-1.8 1.2-1.8 1.2-1.8 1.2-1.92 1.2-1.8 1.2-1.92 1.2-1.92 1.2-1.8 1.2-1.92" stroke-linecap="round" stroke-width="6"/><text x="700" y="1962" text-anchor="middle" fill="#833ab4" font-size="16" font-weight="bold" font-family="monospace">sineOutIn</text></g><g><rect x="10" y="2186" width="180" height="180" rx="10" fill="rgba(131, 59, 181, 0.03)" stroke="rgba(131, 59, 181, 0.08)"/><path fill="transparent" stroke="url(#a)" d="m40 2336 1.2-1.2 1.2-1.2 1.2-1.2 1.2-1.2 1.2-1.2 1.2-1.2 1.2-1.2 1.2-1.2 1.2-1.2 1.2-1.2 1.2-1.2 1.2-1.2 1.2-1.2 1.2-1.2 1.2-1.2 1.2-1.2 1.2-1.2 1.2-1.2 1.2-1.2 1.2-1.2 1.2-1.2 1.2-1.2 1.2-1.2 1.2-1.2 1.2-1.2 1.2-1.2 1.2-1.2 1.2-1.2 1.2-1.2 1.2-1.2 1.2-1.2 1.2-1.2 1.2-1.2 1.2-1.2 1.2-1.2 1.2-1.2 1.2-1.2 1.2-1.2 1.2-1.2 1.2-1.2 1.2-1.2 1.2-1.2 1.2-1.2 1.2-1.2 1.2-1.2 1.2-1.2 1.2-1.2 1.2-1.2 1.2-1.2 1.2-1.2 1.2-1.2 1.2-1.2 1.2-1.2 1.2-1.2 1.2-1.2 1.2-1.2 1.2-1.2 1.2-1.2 1.2-1.2 1.2-1.2 1.2-1.2 1.2-1.2 1.2-1.2 1.2-1.2 1.2-1.2 1.2-1.2 1.2-1.2 1.2-1.2 1.2-1.2 1.2-1.2 1.2-1.2 1.2-1.2 1.2-1.2 1.2-1.2 1.2-1.2 1.2-1.2 1.2-1.2 1.2-1.2 1.2-1.2 1.2-1.2 1.2-1.2 1.2-1.2 1.2-1.2 1.2-1.2 1.2-1.2 1.2-1.2 1.2-1.2 1.2-1.2 1.2-1.2 1.2-1.2 1.2-1.2 1.2-1.2 1.2-1.2 1.2-1.2 1.2-1.2 1.2-1.2 1.2-1.2 1.2-1.2 1.2-1.2 1.2-1.2" stroke-linecap="round" stroke-width="6"/><text x="100" y="2178" text-anchor="middle" fill="#833ab4" font-size="16" font-weight="bold" font-family="monospace">linear</text></g></svg>